<svg viewBox="0 0 16 16" fill="#26263380" xmlns="http://www.w3.org/2000/svg" class="ItemPlaceholder-m__icon--MeY-A"><path fill-rule="evenodd" clip-rule="evenodd" d="M2 8a6 6 0 016-6c3.326 0 6 2.565 6 6 0 .758-.285 1.37-.645 1.73-.331.332-.677.418-.983.338l-1.328-.664V6v-.044l-.045-1a1 1 0 00-1.656-.71A3.763 3.763 0 008 4a4 4 0 100 8c.762 0 1.637-.219 2.281-.741l1.272.635c.042.022.086.04.13.055 1.18.393 2.313-.031 3.087-.804C15.535 10.379 16 9.243 16 8c0-4.565-3.594-8-8-8a8 8 0 102.533 15.59 1 1 0 00-.633-1.897A6 6 0 012 8zm7.045 1.68V6.362C8.823 6.164 8.46 6 8 6a2 2 0 100 4c.533 0 .877-.17 1.045-.32z" fill="#26263380"></path></svg>