<svg xmlns="http://www.w3.org/2000/svg" width="490" height="426" viewBox="0 0 490 426">
    <g fill="none" fill-rule="evenodd">
        <path fill="#FFF" fill-rule="nonzero" d="M363 325H258v101h105z"/>
        <path fill="#203D76" fill-rule="nonzero" d="M262 329h97v93h-97z"/>
        <path fill="#FFF" fill-rule="nonzero" d="M234 325H129v101h105z"/>
        <path fill="#203D76" fill-rule="nonzero" d="M133 329h97v93h-97z"/>
        <path fill="#FFF" fill-rule="nonzero" d="M105 325H0v101h105z"/>
        <path fill="#203D76" fill-rule="nonzero" d="M4 329h97v93H4z"/>
        <path fill="#FFF" fill-rule="nonzero" d="M363 26H258v101h105z"/>
        <path fill="#66BAED" fill-rule="nonzero" d="M262 30h97v93h-97z"/>
        <path fill="#FFF" fill-rule="nonzero" d="M234 26H129v101h105z"/>
        <path fill="#66BAED" fill-rule="nonzero" d="M133 30h97v82h-97z"/>
        <path fill="#FFF" fill-rule="nonzero" d="M105 26H0v101h105z"/>
        <path fill="#66BAED" fill-rule="nonzero" d="M4 30h97v93H4z"/>
        <path fill="#FFF" fill-rule="nonzero" d="M363 195H258v101h105z"/>
        <path fill="#203D76" fill-rule="nonzero" d="M262 199h97v93h-97z"/>
        <path fill="#FFF" fill-rule="nonzero" d="M490 195H385v101h105z"/>
        <path fill="#203D76" fill-rule="nonzero" d="M389 199h97v93h-97z"/>
        <path fill="#FFF" fill-rule="nonzero" d="M234 195H129v101h105z"/>
        <path fill="#203D76" fill-rule="nonzero" d="M133 199h97v93h-97z"/>
        <path fill="#FFF" fill-rule="nonzero" d="M105 195H0v101h105z"/>
        <path fill="#203D76" fill-rule="nonzero" d="M4 292v-93h97v56.13L99 290l-48 2z"/>
        <path fill="#FFF" fill-rule="nonzero" d="M100.87 292l.13-.08V255h-5.63c-21.857.001-40.631 15.53-44.73 37h50.23zM100.35 52.45a26.36 26.36 0 0 0-44.91 4.62 16.74 16.74 0 0 0-25.86 14v.19a16.73 16.73 0 0 0-9.45 6.14 26.43 26.43 0 0 0-17.27.32l-.2 46.74H102l-1-66.12a32.71 32.71 0 0 0-.65-5.89z"/>
        <path fill="#E3EAF0" fill-rule="nonzero" stroke="#E3EAF0" stroke-width=".17" d="M83 122.95a21.52 21.52 0 0 0-2.82-9.55c10.47-6.252 15.285-18.87 11.642-30.507-3.643-11.638-14.793-19.257-26.96-18.423-12.166.834-22.171 9.904-24.192 21.93A17.31 17.31 0 0 0 21 91.2c-4.31-4.93-10.07-8.59-17-9.25v41h79z"/>
        <path fill="#FFF" fill-rule="nonzero" d="M70 30h31v84.06H70z"/>
        <path fill="#E3EAF0" fill-rule="nonzero" d="M97 50.87V123h4V48.6a15 15 0 0 1-4 2.27z"/>
        <path fill="#5A6D7D" fill-rule="nonzero" d="M63 114h34v9H63z"/>
        <path fill="#3F4E5B" fill-rule="nonzero" d="M97 114h4v9h-4z"/>
        <path fill="#FF5F28" fill-rule="nonzero" d="M70 67.81V114H50V88.3zM86 68h11v46H86z"/>
        <path fill="#FFF" fill-rule="nonzero" d="M193 52h9v21h-9z"/>
        <path fill="#9DB3C4" fill-rule="nonzero" d="M197.78 40.06a12.26 12.26 0 0 0-3.51 8.29l-.7 3.65H202v-3.65c0-2.99-1.9-6.82-4.22-8.29z"/>
        <path fill="#E3EAF0" fill-rule="nonzero" d="M193 48.35V52h6v-4a22.73 22.73 0 0 0-1.33-7.94c-2.89 1.41-4.67 5.3-4.67 8.29zM199 52v3.93a2.94 2.94 0 0 1 0 5.25v13.89h3V52h-3z"/>
        <circle cx="197.5" cy="58.5" r="1.88" fill="#5A6D7D" fill-rule="nonzero"/>
        <path fill="#5A6D7D" fill-rule="nonzero" d="M192 73h11v3h-11z"/>
        <path fill="#3F4E5B" fill-rule="nonzero" d="M198 73h5v3h-5z"/>
        <path fill="#FF5F28" fill-rule="nonzero" d="M193 64v9h-5v-5zM202 63.88V73h4.81v-5.09zM196 64h3v9h-3z"/>
        <path fill="#FFF" fill-rule="nonzero" d="M227.82 100.12v.18a8 8 0 0 0-7.37 5 7.88 7.88 0 0 0-8.77-1.67 5 5 0 0 0-4.79-3.54h-.49A4.57 4.57 0 0 0 204 98V85.5a6.5 6.5 0 1 0-13 0V95a6.82 6.82 0 0 0-1.38 3.12 7.85 7.85 0 0 0-8.61 4.67 5 5 0 0 0-2.67-.79 5.08 5.08 0 0 0-5.05 5.11v.38a5 5 0 0 0-2.9 1.91 7.86 7.86 0 0 0-6.94 1 5 5 0 0 0-6.4-.44 8 8 0 0 0-7.56-5.54h-.29a8.1 8.1 0 0 0 .29-2.11 8 8 0 0 0-8-8 7.85 7.85 0 0 0-4.48 1.4 4.92 4.92 0 0 0-4.09-.1v27.35h97v-27a5.11 5.11 0 0 0-2.1 4.16z"/>
        <path fill="#E3EAF0" fill-rule="nonzero" stroke="#E3EAF0" stroke-width=".05" d="M230 123v-16a8.51 8.51 0 0 0-6.8 4.74 5.23 5.23 0 0 0-7.74-.16 8 8 0 0 0-6.17-4.32 8 8 0 0 0-14.85 0 5.13 5.13 0 0 0-4.22 1 8 8 0 0 0-14.06 3.82 5.21 5.21 0 0 0-6 1.49 8 8 0 0 0-12.61.63 7.93 7.93 0 0 0-7.52-3.35 5.27 5.27 0 0 0-5-3.64 5.2 5.2 0 0 0-.66.07 8 8 0 0 0-7.92-9.28 8.72 8.72 0 0 0-3.45.72V123h97z"/>
        <circle cx="153" cy="47" r="4" fill="#FFF" fill-rule="nonzero"/>
        <rect width="57" height="5" y="4" fill="#333" fill-rule="nonzero" opacity=".5" rx="2.5"/>
        <circle cx="73" cy="6" r="6" fill="#333" fill-rule="nonzero" opacity=".5"/>
        <path fill="#E3EAF0" fill-rule="nonzero" d="M272 421.9v-37.8c.028-5.586 4.564-10.1 10.15-10.1h28.47c5.702-.011 10.341 4.588 10.38 10.29v37.66l-49-.05z"/>
        <path fill="#FFF" fill-rule="nonzero" d="M339 368v3.46A12.55 12.55 0 0 1 326.18 384h-16.26c-8.03 8.172-21.108 8.46-29.49.65a22.54 22.54 0 0 0-10.28 5.93l-9.4 9.51v18.49L276 404.15v20.29l41 .57V397h9.2a25.41 25.41 0 0 0 25.8-25.54V368h-13z"/>
        <path fill="#E3EAF0" fill-rule="nonzero" d="M352 355.44a6.22 6.22 0 0 0-5.93-6.44h-.14a6.22 6.22 0 0 0-5.92 6.46v1.63l-1-1a2.85 2.85 0 1 0-4 4l5.3 5.29c.363.357.815.61 1.31.73a5.88 5.88 0 0 0 4.36 1.87h.14a5.86 5.86 0 0 0 5.92-6l-.04-6.54z"/>
        <path fill="#FF5F28" fill-rule="nonzero" d="M272 371.51a1.68 1.68 0 0 0 1.5 1.49h4a1.69 1.69 0 0 0 1.51-1.5v-7.41c0-.65-.74-1.08-1.51-1.08h-4c-.77 0-1.5.44-1.5 1.09v7.41zM318 371.5a1.48 1.48 0 0 1-1.32 1.5h-4.16a1.67 1.67 0 0 1-1.52-1.49v-7.41c0-.65.71-1.09 1.51-1.09h4.16c.8 0 1.32.44 1.32 1.08l.01 7.41z"/>
        <circle cx="294.999" cy="365.995" r="21" fill="#FFF" fill-rule="nonzero" transform="rotate(-.06 295 365.995)"/>
        <path fill="#5A6D7D" fill-rule="nonzero" d="M309.26 365.34a8.46 8.46 0 0 1-7.5-12.45A25.94 25.94 0 0 0 295 352c-11 0-20 6.74-20 15a12 12 0 0 0 2.05 6.61c3.26 5 10.08 5.37 18 5.37 7.59 0 14.19-.19 17.58-4.87A12.12 12.12 0 0 0 315 367a11.44 11.44 0 0 0-.38-2.89 12.83 12.83 0 0 1-5.36 1.23z"/>
        <path fill="#3F4E5B" fill-rule="nonzero" d="M294.87 375.44a43.36 43.36 0 0 0 18.8-3.94c-2.48 6-10 10.33-18.79 10.34-8.79.01-16.32-4.32-18.81-10.3a43.36 43.36 0 0 0 18.8 3.9z"/>
        <path fill="#E3EAF0" fill-rule="nonzero" d="M288.24 388.26l4.69-8.32 1.5.06h.76l1.5-.07 4.58 8.35z"/>
        <ellipse cx="295" cy="348.5" fill="#FF5F28" fill-rule="nonzero" rx="3" ry="1.5"/>
        <path fill="#E3EAF0" fill-rule="nonzero" d="M284 412.22a6.82 6.82 0 0 0 6.87 6.78h11.27a6.82 6.82 0 0 0 6.86-6.8v-8.42a6.82 6.82 0 0 0-6.87-6.78h-11.28a6.82 6.82 0 0 0-6.85 6.8v8.42z"/>
        <path fill="#FF5F28" fill-rule="nonzero" d="M337 366.51a2.55 2.55 0 0 0 2.61 2.49h11.77a2.55 2.55 0 0 0 2.61-2.5 2.55 2.55 0 0 0-2.61-2.49h-11.77a2.55 2.55 0 0 0-2.61 2.5zM333.6 379.6a2.21 2.21 0 0 0 .19 3.19l8.43 8.43a2.2 2.2 0 0 0 3.19.18 2.21 2.21 0 0 0-.19-3.19l-8.43-8.43a2.2 2.2 0 0 0-3.19-.18z"/>
        <circle cx="324" cy="343" r="3.85" fill="#FC0" fill-rule="nonzero"/>
        <path fill="#E3EAF0" fill-rule="nonzero" d="M262 329v19.11A26.39 26.39 0 0 0 280.67 329H262z"/>
        <path fill="#9DB3C4" fill-rule="nonzero" d="M343.13 42.89a27.27 27.27 0 0 0-18.57 7.52L319 56l12 12 5.72-6c4.7-4.7 8.28-14 6.41-19.11z"/>
        <path fill="#FF5F28" fill-rule="nonzero" d="M299 74l-14.38 14.14-6.42-6.42L286 74zM312 87.05l-14.27 14.35 6.35 6.42 7.92-8z"/>
        <path fill="#E3EAF0" fill-rule="nonzero" d="M324 49l-6 6 8 8 5.74-5.41c4.7-4.7 10.25-10.59 11.38-14.7C336.9 41.61 328.7 44.3 324 49z"/>
        <path fill="#FFF" fill-rule="nonzero" d="M297.64 101.64l-13.26-13.26L318 55l13 13z"/>
        <path fill="#FF5F28" fill-rule="nonzero" d="M303.718 78.535l3.543 3.542-14.347 14.348-3.543-3.543z"/>
        <path fill="#E3EAF0" fill-rule="nonzero" d="M326 63l-5.19 5.24a6.57 6.57 0 0 1-8.73 8.82l-19.33 19.53 4.89 5.05L331 68l-5-5z"/>
        <circle cx="314.998" cy="70.996" r="3.88" fill="#5A6D7D" fill-rule="nonzero" transform="rotate(-45 314.998 70.996)"/>
        <path fill="#5A6D7D" fill-rule="nonzero" d="M278.818 89.53l3.599-3.598 17.678 17.677-3.6 3.6z"/>
        <path fill="#3F4E5B" fill-rule="nonzero" d="M289.32 100.027l3.599-3.599 7.184 7.184-3.6 3.6z"/>
        <path fill="#FC0" fill-rule="nonzero" d="M287.34 98.66c-4.83-4.83-12.644-4.883-17.54-.12l-7.8 8.18V123h19l6.63-7c4.586-4.916 4.458-12.58-.29-17.34z"/>
        <circle cx="34.5" cy="222.5" r="8.35" fill="#FC0" fill-rule="nonzero"/>
        <circle cx="74" cy="274" r="3.75" fill="#E3EAF0" fill-rule="nonzero"/>
        <circle cx="80" cy="267" r="2.75" fill="#E3EAF0" fill-rule="nonzero"/>
        <path fill="#E3EAF0" fill-rule="nonzero" d="M79.51 292a8.61 8.61 0 1 0-15 0h15zM472.22 269.95l-.38 1.24a3.2 3.2 0 0 1-1.85 1.92 135.07 135.07 0 0 0-64.67-.08 3.22 3.22 0 0 1-2.28-2.13l-.64-1.62c-2 .59-8.67 3-13.4 4.75v18h97v-17.86a141.84 141.84 0 0 0-13.78-4.22z"/>
        <path fill="#FFF" fill-rule="nonzero" d="M463.3 276.3a6.57 6.57 0 0 1-2.41-2.63 2.24 2.24 0 0 0 .11-.67c0-3.87-10.3-7-23-7s-23 3.13-23 7h-.07c0 1.56-2.37 3.14-2.37 3.14a3.86 3.86 0 0 0-1.69 2.92c0 4.59 12.08 8.31 27 8.31s26.92-3.71 26.92-8.3a3.34 3.34 0 0 0-1.49-2.77z"/>
        <path fill="#E3EAF0" fill-rule="nonzero" d="M438 278c-13 0-21-2.91-21-5s8-5 21-5 21 2.91 21 5-8 5-21 5z"/>
        <path fill="#FFF" fill-rule="nonzero" d="M422 216h48v29h-48z"/>
        <path fill="#197DBD" fill-rule="nonzero" d="M446.5 220c-5.799 0-10.5 4.701-10.5 10.5s4.701 10.5 10.5 10.5 10.5-4.701 10.5-10.5c-.006-5.797-4.703-10.494-10.5-10.5zm-5.5 11a17.93 17.93 0 0 0 .58 4.23 10.54 10.54 0 0 0-2.3 1.66 9.6 9.6 0 0 1-2.41-5.89H441zm6 9.12v-5.2a9.49 9.49 0 0 1 3.39.8c-.78 2.35-2.02 4.05-3.39 4.4zm-4.41-4.39a9.5 9.5 0 0 1 3.39-.81v5.2c-1.35-.35-2.59-2.05-3.37-4.39h-.02zm8.57-4.73a17.17 17.17 0 0 1-.54 3.86A10.37 10.37 0 0 0 447 234v-3h4.16zm-4.16-1v-3a10.42 10.42 0 0 0 3.64-.83 17.18 17.18 0 0 1 .54 3.86L447 230zm0-3.92v-5.2c1.35.36 2.59 2 3.36 4.39a9.49 9.49 0 0 1-3.36.81zm1.72-5a9.63 9.63 0 0 1 4.36 2.35 9.69 9.69 0 0 1-1.95 1.42 8 8 0 0 0-2.41-3.73v-.04zm-2.75-.24v5.2a9.52 9.52 0 0 1-3.39-.8c.81-2.31 2.05-4.01 3.42-4.36l-.03-.04zm-4.12 4a9.66 9.66 0 0 1-1.94-1.43 9.63 9.63 0 0 1 4.36-2.35 8 8 0 0 0-2.41 3.84l-.01-.06zM446 227v3h-4.19a17.17 17.17 0 0 1 .54-3.86 10.43 10.43 0 0 0 3.65.86zm0 4v3a10.43 10.43 0 0 0-3.64.83 17.18 17.18 0 0 1-.54-3.86l4.18.03zm-4.14 5.11a8 8 0 0 0 2.42 3.77 9.63 9.63 0 0 1-4.36-2.35 9.67 9.67 0 0 1 1.94-1.42zm9.28 0a9.68 9.68 0 0 1 1.94 1.43 9.63 9.63 0 0 1-4.36 2.34 8 8 0 0 0 2.42-3.77zm5-5.11a9.6 9.6 0 0 1-2.42 5.9 10.58 10.58 0 0 0-2.3-1.66A17.93 17.93 0 0 0 452 231h4.14zm0-1H452a17.94 17.94 0 0 0-.58-4.23 10.55 10.55 0 0 0 2.3-1.66 9.6 9.6 0 0 1 2.4 5.89h.02zm-16.84-5.89a10.54 10.54 0 0 0 2.3 1.66 17.94 17.94 0 0 0-.6 4.23h-4.14a9.6 9.6 0 0 1 2.43-5.89h.01z"/>
        <path fill="#FC0" fill-rule="nonzero" d="M421 275.79V216a1 1 0 0 1 1-1 .91.91 0 0 1 1 1v60.38c-.06 0-1.2-.38-2-.59z"/>
        <path fill="#E3EAF0" fill-rule="nonzero" d="M346.35 273.23a2 2 0 0 1 0-1.14l.31-1a88.74 88.74 0 0 0-14.46-5l-.23.77a2 2 0 0 1-.71 1 83.94 83.94 0 0 0-41 0 2 2 0 0 1-.88-1.1l-.4-1c-1.76.51-9.19 3.21-11 4l.33.79a2 2 0 0 1 0 1.32 84 84 0 0 0-16.31 9.02V292h97v-11.43a84.12 84.12 0 0 0-12.65-7.34z"/>
        <path fill="#FFF" fill-rule="nonzero" d="M326.51 270.06s-1.56-1-1.57-2c0-2.42-6.37-4.38-14.22-4.38-7.85 0-14.22 2-14.22 4.38 0 1-1.47 1.95-1.47 1.95a2.39 2.39 0 0 0-1.05 1.81c0 2.85 7.5 5.15 16.74 5.15 9.24 0 16.71-2.3 16.71-5.15a2.07 2.07 0 0 0-.92-1.76zM359 276c-1.13-.38-2.32-.74-3.57-1.06a38 38 0 0 0-8.94-1.23c-3.3 0-5.59.69-5.92 2-.26 1-2 1.59-2 1.59a2.07 2.07 0 0 0-1.31 1.46c-.69 2.76 6 6.81 15 9.05a48.56 48.56 0 0 0 8.22 1.36L359 276z"/>
        <path fill="#E3EAF0" fill-rule="nonzero" d="M346.49 275c-3.33 0-4.63.74-4.72 1.08-.22.88 3.65 4.15 11.83 6.2a41.7 41.7 0 0 0 5.4 1v-5.9c-1.16-.41-2.45-.81-3.87-1.16a37.07 37.07 0 0 0-8.64-1.22z"/>
        <path fill="#FFF" fill-rule="nonzero" d="M285 278.82a2.07 2.07 0 0 0-1.31-1.46s-1.75-.57-2-1.59c-.33-1.33-2.62-2-5.92-2a38 38 0 0 0-8.94 1.23 43.56 43.56 0 0 0-4.84 1.51l-1.41 12.81a46.6 46.6 0 0 0 9.49-1.43c8.93-2.26 15.65-6.31 14.93-9.07z"/>
        <path fill="#E3EAF0" fill-rule="nonzero" d="M277.82 278.72c2.45-1.48 2.83-2.47 2.78-2.65-.08-.34-1.61-1.08-4.61-1.08a34.68 34.68 0 0 0-8.75 1.19 44.44 44.44 0 0 0-5.25 1.66v5.54a40.49 40.49 0 0 0 6.69-1.11 34.61 34.61 0 0 0 9.14-3.55z"/>
        <path fill="#FC0" fill-rule="nonzero" d="M359 199h-36.86a23.15 23.15 0 0 0-1.14 7.17A22.63 22.63 0 0 0 343.44 229a22.16 22.16 0 0 0 15.56-6.39V199z"/>
        <path fill="#E3EAF0" fill-rule="nonzero" d="M101 403.17a138.01 138.01 0 0 0-13.26-4l-.38 1.24a3.2 3.2 0 0 1-1.58 1.81A130.72 130.72 0 0 0 52.94 398c-11-.005-21.956 1.4-32.6 4.18a3.22 3.22 0 0 1-1.68-1.91l-.66-1.62c-2.11.61-9.26 3.18-14 5V422h97v-18.83z"/>
        <path fill="#9DB3C4" fill-rule="nonzero" d="M45 370h-4v-13h4z"/>
        <path fill="#FFF" fill-rule="nonzero" d="M20.05 374l2.33 6 1.95 2.4v2.6l2.33 6 2.47 2.5-.52 2.5 2.33 6h43.53l2.37-6-1.07-2.6 3.05-2.4 2.37-6-.99-2.5 2.97-2.5 2.37-6z"/>
        <path fill="#9DB3C4" fill-rule="nonzero" d="M75 405H30.52a1.52 1.52 0 0 1-1.52-1.55v.19a1.66 1.66 0 0 1 1.8-1.64H75v3z"/>
        <circle cx="29.5" cy="404.5" r="6.37" fill="#5A6D7D" fill-rule="nonzero"/>
        <circle cx="29.5" cy="404.5" r="3.25" fill="#9DB3C4" fill-rule="nonzero"/>
        <circle cx="44.5" cy="404.5" r="6.38" fill="#5A6D7D" fill-rule="nonzero"/>
        <circle cx="44.5" cy="404.5" r="3.25" fill="#9DB3C4" fill-rule="nonzero"/>
        <circle cx="59.5" cy="404.5" r="6.38" fill="#5A6D7D" fill-rule="nonzero"/>
        <circle cx="59.5" cy="404.5" r="3.25" fill="#9DB3C4" fill-rule="nonzero"/>
        <circle cx="74.5" cy="404.5" r="6.38" fill="#5A6D7D" fill-rule="nonzero"/>
        <circle cx="74.5" cy="404.5" r="3.25" fill="#9DB3C4" fill-rule="nonzero"/>
        <path fill="#E3EAF0" fill-rule="nonzero" d="M41 380v5H24.33l-1.95-5zM41 391v5H28.61l-1.95-5zM83.17 380l-1.98 5H64v-5zM78.82 391l-1.98 5H64v-5zM90 369.35S81.7 364 52.73 364C23.76 364 15 369.35 15 369.35V375h75v-5.65z"/>
        <circle cx="43" cy="355" r="3.85" fill="#E3EAF0" fill-rule="nonzero"/>
        <circle cx="202" cy="356" r="3.85" fill="#FFF" fill-rule="nonzero"/>
        <path fill="#E3EAF0" fill-rule="nonzero" d="M190.1 416.69l-14.53-14.53c4.808-5.547 4.515-13.865-.67-19.06-5.195-5.185-13.513-5.478-19.06-.67l-5.14-5.14-1.41 1.41 5.14 5.14c-4.7 5.559-4.356 13.792.791 18.939s13.38 5.491 18.939.791l14.53 14.53 1.41-1.41z"/>
        <path fill="#FFF" fill-rule="nonzero" d="M196.95 406.09L196 411l-11 12-6.32 1.36-9.6-9.61 18.27-18.27zM216.16 425.3l-17.53-1.67L201 418l5.56-2.3zM142.41 351.55L142 355l-9 9-.03-3-2.18-17.04 2.02-2.02zM161.63 370.76l-18.27 18.27-9.61-9.6.25-4.43 15-14 3.02.16z"/>
        <rect width="14" height="14" x="158.001" y="386" fill="#9DB3C4" fill-rule="nonzero" rx="7" transform="rotate(-45 165 393)"/>
        <path fill="#E3EAF0" fill-rule="nonzero" d="M206.56 415.7l-6.31 6.3h-19.21l15.91-15.91zM142.44 351.55L133 361v17.64l.78.79 18.27-18.27z"/>
        <path fill="#9DB3C4" fill-rule="nonzero" d="M15 370h75v5H15z"/>
        <path fill="#FFF" fill-rule="nonzero" d="M130.25 266v-2c4.32-.08 10.57-.7 14.92-5.05 3.77-3.48 5.79-7.59 5.88-11.92.09-4.62-2-9.3-5.88-13.19l-1.17-1.17a8 8 0 0 1 .11-10.63l7.28-7.26 1.4 1.4-7.29 7.26a6 6 0 0 0-.08 7.85l1.15 1.2c4.25 4.25 6.54 9.45 6.44 14.61-.1 4.87-2.34 9.47-6.48 13.3-4.85 4.85-11.61 5.53-16.28 5.6z"/>
        <path fill="#FF5F28" fill-rule="nonzero" d="M144.68 215.21l-1.46-1.46a.38.38 0 0 0-.53 0l-1 1.05a.37.37 0 0 0 0 .53l1.42 1.42c.18.18.47.18.65 0l1-1a.4.4 0 0 0-.08-.54zM151.07 209.11l-1.46-1.46a.38.38 0 0 0-.53 0l-1 1.05a.37.37 0 0 0 0 .53l1.42 1.42c.18.18.47.18.65 0l1-1a.4.4 0 0 0-.08-.54z"/>
        <path fill="#9DB3C4" fill-rule="nonzero" d="M162.27 219.67l-8.08-8.09a2.08 2.08 0 0 0-2.95 0l-5.77 5.84a2.08 2.08 0 0 0 0 2.93l7.87 7.87a2.56 2.56 0 0 0 3.63 0l5.3-5.38a2.24 2.24 0 0 0 0-3.17z"/>
        <path fill="#E3EAF0" fill-rule="nonzero" d="M153.8 231.47a.63.63 0 0 0 .48-.6.64.64 0 0 0-.63-.64h-1.58a1.35 1.35 0 0 0-1.07.41 1.31 1.31 0 0 0 0 1.88l1 1a1.37 1.37 0 0 0 1.93 0 1.37 1.37 0 0 0 0-1.93l-.13-.12zM164.47 205.54a1.37 1.37 0 0 0-1.78.73l-.15.35-.05-.22a.64.64 0 1 0-1.24.3l.39 1.63a.63.63 0 0 0 .66.47c.154.208.361.37.6.47a1.31 1.31 0 0 0 1.75-.67l.54-1.28a1.37 1.37 0 0 0-.72-1.78z"/>
        <path fill="#FFF" fill-rule="nonzero" d="M149.65 208.73l-.08-.09a4.66 4.66 0 0 0-6.6 6.58l.1.09 6.58-6.58zM174.86 228.94l-12.77-7.19-3.92-3.92-2.33-2.34 2.49.2a4.33 4.33 0 0 0 4.25-2.49l1.64-3.57-3.15-1.45-1.64 3.57a.82.82 0 0 1-.82.48l-4.38-.35h-.14a5 5 0 0 0-2.59.73 4.68 4.68 0 0 1-4.73 4.58 5 5 0 0 0-1 2.69l-.29 5.17a5.08 5.08 0 0 0 1.44 3.83l3.7 3.78 2.48-2.42-3.7-3.78a1.61 1.61 0 0 1-.45-1.21l.21-3.73 2.61 2.72.93.93 2.75 2.75L165.1 241l4-2.94-8.49-11.49 11.84 6.67 2.41-4.3z"/>
        <circle cx="146.356" cy="212.021" r="4.75" fill="#FFF" fill-rule="nonzero" transform="rotate(-44.96 146.356 212.021)"/>
        <path fill="#FF5F28" fill-rule="nonzero" d="M153.27 230.84a.85.85 0 0 0 0-1.22.85.85 0 0 0-1.22 0l-1.9 1.89a.89.89 0 0 0 0 1.25.88.88 0 0 0 1.25 0l1.87-1.92zM159.75 215.32a.85.85 0 0 0 1.2.19.85.85 0 0 0 .24-1.19l-1.49-2.23a.89.89 0 0 0-1.23-.23.89.89 0 0 0-.22 1.23l1.5 2.23zM163.5 210.29a.85.85 0 0 0 1.13-.44.85.85 0 0 0-.39-1.15l-2.41-1.19a.89.89 0 0 0-1.18.42.89.89 0 0 0 .43 1.17l2.42 1.19zM148.95 226.78a.85.85 0 0 0 .47-1.12.85.85 0 0 0-1.1-.52l-2.52.92a.89.89 0 0 0-.51 1.14.88.88 0 0 0 1.14.5l2.52-.92z"/>
        <path fill="#5A6D7D" fill-rule="nonzero" d="M149.23 209.39a2.31 2.31 0 0 0-1.23-.62c.057.171.087.35.09.53a1.79 1.79 0 0 1-3.47.62l-.19.16c-1.52 1.52-1.84 3.67-.71 4.8 1.13 1.13 3.28.82 4.8-.7s1.84-3.66.71-4.79z"/>
        <path fill="#3F4E5B" fill-rule="nonzero" d="M149.23 209.39a2.2 2.2 0 0 0-.59-.41 4.32 4.32 0 0 1-5.33 5.32 2.2 2.2 0 0 0 .4.58c1.13 1.13 3.28.82 4.8-.7s1.85-3.66.72-4.79z"/>
        <path fill="#FF5F28" fill-rule="nonzero" d="M177.496 228.403l-3.083 5.904-2.074-1.083 2.013-3.856a2.31 2.31 0 0 1 3.117-.979l.027.014zM170.908 238.084l-5.328 3.996a2.32 2.32 0 0 1 .464-3.248l3.472-2.604 1.392 1.856z"/>
        <path fill="#FFF" fill-rule="nonzero" d="M159 285.28V293l73.11.92c0-31.64-.71-71.87-.71-71.87h-9.22A63.2 63.2 0 0 0 159 285.28z"/>
        <circle cx="183.5" cy="266.5" r="10.5" fill="#E3EAF0" fill-rule="nonzero"/>
        <circle cx="193" cy="251" r="5" fill="#E3EAF0" fill-rule="nonzero"/>
        <circle cx="201.5" cy="243.5" r="3.5" fill="#E3EAF0" fill-rule="nonzero"/>
        <circle cx="172.5" cy="279.5" r="3.5" fill="#E3EAF0" fill-rule="nonzero"/>
        <path fill="#E3EAF0" fill-rule="nonzero" d="M204.4 292a16.88 16.88 0 0 0-32.32 0h32.32z"/>
        <rect width="6.06" height="1.81" x="165.029" y="226.976" fill="#FF5F28" fill-rule="nonzero" rx=".88" transform="rotate(-60.02 168.059 227.881)"/>
        <rect width="6.05" height="1.81" x="159.888" y="232.997" fill="#FF5F28" fill-rule="nonzero" rx=".88" transform="rotate(-37.19 162.913 233.902)"/>
        <path fill="#9DB3C4" fill-rule="nonzero" d="M158.46 220.36l-3.83-3.83a1 1 0 0 0-1.39 0l-2.73 2.76a1 1 0 0 0 0 1.39l3.72 3.73a1.21 1.21 0 0 0 1.72 0l2.51-2.55a1.06 1.06 0 0 0 0-1.5z"/>
        <path fill="#E3EAF0" fill-rule="nonzero" d="M310.73 264.89c-7.06 0-11.72 1.41-12.76 2.64 1 1.23 5.7 2.64 12.76 2.64s11.72-1.41 12.76-2.64c-1.04-1.23-5.71-2.64-12.76-2.64z"/>
        <circle cx="13.5" cy="51.5" r="1.25" fill="#FFF" fill-rule="nonzero"/>
        <circle cx="44.5" cy="41.5" r="1.25" fill="#FFF" fill-rule="nonzero"/>
        <circle cx="226.5" cy="354.5" r="1.25" fill="#FFF" fill-rule="nonzero"/>
        <circle cx="176.5" cy="338.5" r="1.25" fill="#FFF" fill-rule="nonzero"/>
        <circle cx="182.5" cy="365.5" r="1.25" fill="#FFF" fill-rule="nonzero"/>
        <circle cx="149.5" cy="411.5" r="1.25" fill="#FFF" fill-rule="nonzero"/>
        <circle cx="214.5" cy="393.5" r="1.25" fill="#FFF" fill-rule="nonzero"/>
        <circle cx="211.5" cy="384.5" r="1.25" fill="#FFF" fill-rule="nonzero"/>
        <circle cx="148.5" cy="342.5" r="1.25" fill="#FFF" fill-rule="nonzero"/>
        <circle cx="143.5" cy="64.5" r="1.25" fill="#FFF" fill-rule="nonzero"/>
        <circle cx="175.5" cy="48.5" r="1.25" fill="#FFF" fill-rule="nonzero"/>
        <circle cx="160.5" cy="70.5" r="1.25" fill="#FFF" fill-rule="nonzero"/>
        <circle cx="182.5" cy="59.5" r="1.25" fill="#FFF" fill-rule="nonzero"/>
        <circle cx="215.5" cy="59.5" r="1.25" fill="#FFF" fill-rule="nonzero"/>
        <circle cx="223.5" cy="43.5" r="1.25" fill="#FFF" fill-rule="nonzero"/>
        <circle cx="350.5" cy="337.5" r="1.25" fill="#FFF" fill-rule="nonzero"/>
        <circle cx="337.5" cy="413.5" r="1.25" fill="#FFF" fill-rule="nonzero"/>
        <circle cx="351.5" cy="404.5" r="1.25" fill="#FFF" fill-rule="nonzero"/>
        <circle cx="354.5" cy="54.5" r="1.25" fill="#FFF" fill-rule="nonzero"/>
        <circle cx="304.5" cy="38.5" r="1.25" fill="#FFF" fill-rule="nonzero"/>
        <circle cx="342.5" cy="93.5" r="1.25" fill="#FFF" fill-rule="nonzero"/>
        <circle cx="316.5" cy="116.5" r="1.25" fill="#FFF" fill-rule="nonzero"/>
        <circle cx="339.5" cy="85.5" r="1.25" fill="#FFF" fill-rule="nonzero"/>
        <circle cx="272.5" cy="74.5" r="1.25" fill="#FFF" fill-rule="nonzero"/>
        <circle cx="276.5" cy="44.5" r="1.25" fill="#FFF" fill-rule="nonzero"/>
        <circle cx="12.5" cy="253.5" r="1.25" fill="#FFF" fill-rule="nonzero"/>
        <circle cx="64.5" cy="214.5" r="1.25" fill="#FFF" fill-rule="nonzero"/>
        <circle cx="24.5" cy="281.5" r="1.25" fill="#FFF" fill-rule="nonzero"/>
        <circle cx="20.5" cy="248.5" r="1.25" fill="#FFF" fill-rule="nonzero"/>
        <circle cx="93.5" cy="233.5" r="1.25" fill="#FFF" fill-rule="nonzero"/>
        <circle cx="56.5" cy="253.5" r="1.25" fill="#FFF" fill-rule="nonzero"/>
        <circle cx="413.5" cy="223.5" r="1.25" fill="#FFF" fill-rule="nonzero"/>
        <circle cx="396.5" cy="240.5" r="1.25" fill="#FFF" fill-rule="nonzero"/>
        <circle cx="481.5" cy="245.5" r="1.25" fill="#FFF" fill-rule="nonzero"/>
        <circle cx="453.5" cy="210.5" r="1.25" fill="#FFF" fill-rule="nonzero"/>
        <circle cx="403.5" cy="215.5" r="1.25" fill="#FFF" fill-rule="nonzero"/>
        <circle cx="294.5" cy="209.5" r="1.25" fill="#FFF" fill-rule="nonzero"/>
        <circle cx="332.5" cy="243.5" r="1.25" fill="#FFF" fill-rule="nonzero"/>
        <circle cx="338.5" cy="250.5" r="1.25" fill="#FFF" fill-rule="nonzero"/>
        <circle cx="351.5" cy="246.5" r="1.25" fill="#FFF" fill-rule="nonzero"/>
        <circle cx="293.5" cy="252.5" r="1.25" fill="#FFF" fill-rule="nonzero"/>
        <circle cx="285.5" cy="214.5" r="1.25" fill="#FFF" fill-rule="nonzero"/>
        <circle cx="274" cy="241" r="1.83" fill="#FFF" fill-rule="nonzero"/>
        <circle cx="57.5" cy="346.5" r="1.25" fill="#FFF" fill-rule="nonzero"/>
        <circle cx="20.5" cy="363.5" r="1.25" fill="#FFF" fill-rule="nonzero"/>
        <circle cx="94.5" cy="374.5" r="1.25" fill="#FFF" fill-rule="nonzero"/>
        <circle cx="83.5" cy="355.5" r="1.25" fill="#FFF" fill-rule="nonzero"/>
        <circle cx="88.5" cy="350.5" r="1.25" fill="#FFF" fill-rule="nonzero"/>
        <circle cx="29.5" cy="346.5" r="1.25" fill="#FFF" fill-rule="nonzero"/>
        <circle cx="188.5" cy="220.5" r="1.25" fill="#FFF" fill-rule="nonzero"/>
        <circle cx="146.5" cy="281.5" r="1.25" fill="#FFF" fill-rule="nonzero"/>
        <circle cx="152.5" cy="276.5" r="1.25" fill="#FFF" fill-rule="nonzero"/>
        <circle cx="138.5" cy="243.5" r="1.25" fill="#FFF" fill-rule="nonzero"/>
        <circle cx="206.5" cy="203.5" r="1.25" fill="#FFF" fill-rule="nonzero"/>
        <circle cx="16.5" cy="39.5" r="1.25" fill="#FFF" fill-rule="nonzero"/>
        <rect width="57" height="5" y="173" fill="#333" fill-rule="nonzero" opacity=".5" rx="2.5"/>
        <circle cx="73" cy="175" r="6" fill="#333" fill-rule="nonzero" opacity=".5"/>
        <path fill="#5A6D7D" d="M87.873 30h8.254a9 9 0 1 1-8.254 0z"/>
    </g>
</svg>
