<svg width="18" height="18" viewBox="0 0 18 18" fill="#26263380" xmlns="http://www.w3.org/2000/svg" class="WidgetIcon"><path fill-rule="evenodd" clip-rule="evenodd" d="M0.533494 2.67257C0 3.71961 0 5.09027 0 7.83158V10.1684C0 12.9097 0 14.2804 0.533494 15.3274C1.00277 16.2484 1.75157 16.9972 2.67257 17.4665C3.71961 18 5.09027 18 7.83158 18H10.1684C12.9097 18 14.2804 18 15.3274 17.4665C16.2484 16.9972 16.9972 16.2484 17.4665 15.3274C18 14.2804 18 12.9097 18 10.1684V7.83158C18 5.09027 18 3.71961 17.4665 2.67257C16.9972 1.75157 16.2484 1.00277 15.3274 0.533494C14.2804 0 12.9097 0 10.1684 0H7.83158C5.09027 0 3.71961 0 2.67257 0.533494C1.75157 1.00277 1.00277 1.75157 0.533494 2.67257ZM8.25 8.5C8.66421 8.5 9 8.16421 9 7.75C9 7.33579 8.66421 7 8.25 7C7.83579 7 7.5 7.33579 7.5 7.75C7.5 8.16421 7.83579 8.5 8.25 8.5ZM7.00004 5.49993C5.06704 5.49993 3.50004 7.06693 3.50004 8.99993C3.50004 10.9329 5.06704 12.4999 7.00004 12.4999C8.93303 12.4999 10.5 10.9329 10.5 8.99993C10.5 7.06693 8.93303 5.49993 7.00004 5.49993ZM2.50004 8.99993C2.50004 6.51465 4.51476 4.49993 7.00004 4.49993C9.48532 4.49993 11.5 6.51465 11.5 8.99993C11.5 11.4852 9.48532 13.4999 7.00004 13.4999C4.51476 13.4999 2.50004 11.4852 2.50004 8.99993ZM14.5 10.5C15.3284 10.5 16 9.82843 16 9C16 8.17157 15.3284 7.5 14.5 7.5C13.6716 7.5 13 8.17157 13 9C13 9.82843 13.6716 10.5 14.5 10.5Z" fill="#26263380"></path></svg>