<svg width="129" height="68" viewBox="1 0 129 68" fill="none" xmlns="http://www.w3.org/2000/svg" class="SettingsDisplay__svg--2-J1m"><g opacity="0.7" fill="#D9D9D9"><path d="M18 8h111v1H18zM18 18h111v1H18zM18 28h111v1H18zM18 38h111v1H18zM18 48h111v1H18zM18 58h111v1H18z"></path></g><path d="M0 12C0 5.373 5.373 0 12 0h6v68h-6C5.373 68 0 62.627 0 56V12z" fill="#F5F5F5" style="mix-blend-mode: multiply;"></path><rect x="4" y="9" width="10" height="2" rx="0.868" fill="#EBEBEB" style="mix-blend-mode: multiply;"></rect><rect x="4" y="15" width="10" height="2" rx="0.868" fill="#EBEBEB" style="mix-blend-mode: multiply;"></rect><rect x="4" y="21" width="10" height="2" rx="0.868" fill="#EBEBEB" style="mix-blend-mode: multiply;"></rect><rect x="4" y="27" width="10" height="2" rx="0.868" fill="#EBEBEB" style="mix-blend-mode: multiply;"></rect></svg>