<svg width="129" height="68" viewBox="0 0 129 68" fill="none" xmlns="http://www.w3.org/2000/svg" class="SettingsDisplay__svg--2-J1m"><rect width="129" height="68" rx="12" fill="#fff"></rect><g opacity="0.7" fill="#D9D9D9"><path d="M18 8h29v1H18zM18 17h29v1H18zM18 26h29v1H18zM18 35h29v1H18zM18 44h29v1H18zM18 53h29v1H18zM18 62h29v1H18z"></path></g><rect opacity="0.5" x="58.115" y="6" width="38" height="4" rx="1.4" fill="#999"></rect><rect opacity="0.3" x="58.115" y="26" width="22" height="2" rx="1" fill="#999"></rect><rect opacity="0.3" x="58.115" y="38" width="29" height="2" rx="1" fill="#999"></rect><rect opacity="0.3" x="58.115" y="32" width="38" height="2" rx="1" fill="#999"></rect><rect opacity="0.3" x="58.115" y="44" width="22" height="2" rx="1" fill="#999"></rect><rect opacity="0.3" x="58.115" y="61" width="10" height="2" rx="1" fill="#999"></rect><rect opacity="0.3" x="58.115" y="51" width="38" height="2" rx="1" fill="#999"></rect><circle cx="62.115" cy="17" r="4" fill="#FFEA99"></circle><rect opacity="0.3" x="69.231" y="13" width="18" height="3" rx="1.4" fill="#999"></rect><rect opacity="0.3" x="69.231" y="18" width="9" height="2" rx="1" fill="#999"></rect><path d="M0 12C0 5.373 5.373 0 12 0h6v68h-6C5.373 68 0 62.627 0 56V12z" fill="#F5F5F5" style="mix-blend-mode: multiply;"></path><rect x="4" y="9" width="10" height="2" rx="0.868" fill="#EBEBEB" style="mix-blend-mode: multiply;"></rect><rect x="4" y="15" width="10" height="2" rx="0.868" fill="#EBEBEB" style="mix-blend-mode: multiply;"></rect><rect x="4" y="21" width="10" height="2" rx="0.868" fill="#EBEBEB" style="mix-blend-mode: multiply;"></rect><rect x="4" y="27" width="10" height="2" rx="0.868" fill="#EBEBEB" style="mix-blend-mode: multiply;"></rect><path d="M48.115 0h-1v69h1V0z" fill="#D9D9D9"></path></svg>