<svg width="129" height="68" viewBox="0 0 129 68" fill="none" xmlns="http://www.w3.org/2000/svg" class="SettingsDisplay__svg--2-J1m"><rect x="0.131" width="128.206" height="68" rx="12" fill="#fff"></rect><rect opacity="0.5" x="23" y="38" width="58" height="4" rx="1.4" fill="#999"></rect><rect opacity="0.3" x="23" y="58" width="22" height="2" rx="1" fill="#999"></rect><rect opacity="0.3" x="23" y="63" width="58" height="2" rx="1" fill="#999"></rect><circle cx="27" cy="49" r="4" fill="#FFEA99"></circle><rect opacity="0.3" x="34.115" y="45" width="18" height="3" rx="1.4" fill="#999"></rect><rect opacity="0.3" x="34.115" y="50" width="9" height="2" rx="1" fill="#999"></rect><g opacity="0.7" fill="#D9D9D9"><rect x="18" y="7" width="109.613" height="1" rx="0.5"></rect><rect x="18" y="16" width="111.001" height="1" rx="0.5"></rect><rect x="18" y="25" width="111.001" height="1" rx="0.5"></rect><rect x="18" y="34" width="111.001" height="1" rx="0.5"></rect></g><path d="M0 12C0 5.373 5.373 0 12 0h6v68h-6C5.373 68 0 62.627 0 56V12z" fill="#F5F5F5" style="mix-blend-mode: multiply;"></path><rect x="4" y="9" width="10" height="2" rx="1" fill="#EBEBEB" style="mix-blend-mode: multiply;"></rect><rect x="4" y="15" width="10" height="2" rx="1" fill="#EBEBEB" style="mix-blend-mode: multiply;"></rect><rect x="4" y="21" width="10" height="2" rx="1" fill="#EBEBEB" style="mix-blend-mode: multiply;"></rect><rect x="4" y="27" width="10" height="2" rx="1" fill="#EBEBEB" style="mix-blend-mode: multiply;"></rect></svg>