<svg class="ufo-icon__icon" width="16" height="16" role="none" viewBox="0 0 16 16" xmlns='http://www.w3.org/2000/svg'><path fill="#26263380" fill-rule="evenodd" clip-rule="evenodd" d="M4 3a3 3 0 0 1 3-3h2a3 3 0 0 1 3 3h2a1 1 0 1 1 0 2h-.654l-.74 9.615A1.5 1.5 0 0 1 11.111 16H4.889a1.5 1.5 0 0 1-1.496-1.385L2.653 5H2a1 1 0 0 1 0-2h2zm1.586 2.95a.8.8 0 0 0-.736.86l.425 5.505a.8.8 0 0 0 1.596-.123l-.426-5.505a.8.8 0 0 0-.86-.736zm3.969.742a.8.8 0 0 1 1.595.123l-.425 5.493a.8.8 0 1 1-1.595-.123l.425-5.493zM7 2a1 1 0 0 0-1 1h4a1 1 0 0 0-1-1H7z"></path></svg>