<svg class="ufo-icon__icon" width="16" height="16" role="none" viewBox="0 0 16 16" xmlns='http://www.w3.org/2000/svg'><path fill="#26263380" d="M1.22717 5.7221C0.713689 5.7221 0.36228 5.20389 0.552269 4.72686L2.05339 0.957764C2.26868 0.417197 3.0004 0.33647 3.32835 0.817104L3.984 1.77798C5.20611 0.971963 6.67038 0.502329 8.24466 0.502329C12.5242 0.502329 15.9935 3.9716 15.9935 8.25116L15.9935 8.27546L15.9935 8.28935C15.9935 10.7955 14.7888 13.0221 12.9235 14.4285C11.6234 15.4148 10.0024 16 8.24466 16C6.6851 16 5.23338 15.5394 4.01792 14.7468C2.29134 13.6307 1.03091 11.8457 0.627579 9.73163C0.6191 9.68718 0.614245 9.64289 0.612807 9.59905C0.600216 9.52732 0.588611 9.45525 0.578005 9.38286C0.500466 8.85356 0.866687 8.36163 1.39598 8.28409C1.92528 8.20655 2.41722 8.57277 2.49476 9.10207C2.90582 11.9081 5.32447 14.0628 8.24466 14.0628C11.4543 14.0628 14.0563 11.4608 14.0563 8.25116C14.0563 5.04149 11.4543 2.43954 8.24466 2.43954C7.07609 2.43954 5.98772 2.78427 5.076 3.37835L5.90016 4.58619C6.22919 5.0684 5.88385 5.7221 5.30009 5.7221H1.22717Z"></path><path fill="#26263380" d="M9.11641 5.34535C9.11641 4.8639 8.72611 4.47361 8.24466 4.47361C7.76321 4.47361 7.37292 4.8639 7.37292 5.34535V8.73547C7.37292 9.00985 7.50211 9.26823 7.72162 9.43286L9.65883 10.8858C10.044 11.1746 10.5904 11.0966 10.8793 10.7114C11.1681 10.3263 11.0901 9.77985 10.7049 9.49098L9.11641 8.29959V5.34535Z"></path></svg>