<svg class="ufo-icon__icon" width="16" height="16" role="none" viewBox="0 0 16 16" xmlns='http://www.w3.org/2000/svg'><path fill="#26263380" fill-rule="evenodd" clip-rule="evenodd" d="M3 0a1 1 0 0 0 0 2h10a1 1 0 1 0 0-2H3zm-.5 3A1.5 1.5 0 0 0 1 4.5v9A1.5 1.5 0 0 0 2.5 15h11a1.5 1.5 0 0 0 1.5-1.5v-9A1.5 1.5 0 0 0 13.5 3h-11zm2.899 6.282a.468.468 0 0 0-.655.158l-1.68 2.855a.468.468 0 0 0 .404.705h9.064c.32 0 .545-.313.444-.616l-1.841-5.522a.468.468 0 0 0-.828-.12l-2.486 3.551a.468.468 0 0 1-.634.127L5.399 9.281zM4 8a1 1 0 1 0 0-2 1 1 0 0 0 0 2z"></path></svg>