<svg class="ufo-icon__icon" width="16" height="16" role="none" viewBox="0 0 16 16" xmlns='http://www.w3.org/2000/svg'><g clip-path="url(#a)"><path fill="#26263380" fill-rule="evenodd" clip-rule="evenodd" d="M3 11.533a.8.8 0 0 0-.8-.8h-.4a.8.8 0 0 0-.8.8v.967A2.5 2.5 0 0 0 3.5 15h.842a.8.8 0 0 0 .8-.8v-.4a.8.8 0 0 0-.8-.8H3.5a.5.5 0 0 1-.5-.5v-.967zM4.342 3a.8.8 0 0 0 .8-.8v-.4a.8.8 0 0 0-.8-.8H3.5A2.5 2.5 0 0 0 1 3.5v.8a.8.8 0 0 0 .8.8h.4a.8.8 0 0 0 .8-.8v-.8a.5.5 0 0 1 .5-.5h.842zM13 4.3a.8.8 0 0 0 .8.8h.4a.8.8 0 0 0 .8-.8v-.8A2.5 2.5 0 0 0 12.5 1h-.925a.8.8 0 0 0-.8.8v.4a.8.8 0 0 0 .8.8h.925a.5.5 0 0 1 .5.5v.8zm0 7.233a.8.8 0 0 1 .8-.8h.4a.8.8 0 0 1 .8.8v.967a2.5 2.5 0 0 1-2.5 2.5h-.925a.8.8 0 0 1-.8-.8v-.4a.8.8 0 0 1 .8-.8h.925a.5.5 0 0 0 .5-.5v-.967zM.95 7a.95.95 0 0 0-.95.95v.1c0 .525.425.95.95.95h14.1a.95.95 0 0 0 .95-.95v-.1a.95.95 0 0 0-.95-.95H.95z"></path></g><defs><clipPath id="a"><path fill="#fff" d="M0 0h16v16H0z"></path></clipPath></defs></svg>