<svg width="16" height="16" viewBox="0 0 16 16" fill="none" xmlns="http://www.w3.org/2000/svg" class="WidgetIcon"><path d="M12 0H4C1.79086 0 0 1.79086 0 4V12C0 14.2091 1.79086 16 4 16H12C14.2091 16 16 14.2091 16 12V4C16 1.79086 14.2091 0 12 0Z" fill="url(#paint0_linear_disk)"></path><path fill-rule="evenodd" clip-rule="evenodd" d="M0.05234 12.2003C2.98023e-08 11.5377 0 10.7051 0 9.6V9.0152C0.33205 8.46562 0.77996 7.89613 1.32914 7.33351C1.66947 6.95569 1.93113 6.40981 2.19341 5.86264C2.29061 5.65987 2.38789 5.45692 2.48929 5.26228C3.01982 4.24382 3.92359 3.29899 5.14069 2.72925C6.54809 2.06976 8.0849 2.04732 9.3264 2.43916C9.4234 2.46975 9.5176 2.50101 9.6107 2.53189C10.0595 2.68081 10.4806 2.82055 11.0564 2.83027C13.4947 2.66637 15.4045 3.23133 15.8489 4.15418C16.8915 6.31914 3.16872 12.9627 0.05234 12.2003Z" fill="#012B5B"></path><path fill-rule="evenodd" clip-rule="evenodd" d="M0.090564 12.579C0.011914 11.9545 0.00160414 11.1677 0.000244141 10.1019C0.975244 8.54622 3.29742 6.64852 6.34218 5.22222C10.7677 3.14912 15.0842 2.83834 15.9744 4.24413C15.9934 4.67629 15.9983 5.17395 15.9996 5.75763C15.3863 7.55871 12.9899 10.1197 9.5279 11.7412C5.58582 13.588 1.5594 13.6087 0.090564 12.579Z" fill="#1884FF"></path><path fill-rule="evenodd" clip-rule="evenodd" d="M9.4161 11.058C11.5613 10.0532 13.018 8.65265 12.6701 7.92965C12.3222 7.20696 10.3009 7.43574 8.1557 8.44062C6.01051 9.4455 4.55378 10.846 4.9017 11.5687C5.24962 12.2914 7.2708 12.0629 9.4161 11.058Z" fill="white"></path><defs><linearGradient id="paint0_linear_disk" x1="6.75" y1="5.75" x2="13.5" y2="15.5" gradientUnits="userSpaceOnUse"><stop offset="0.0208333" stop-color="#0151AE"></stop><stop offset="1" stop-color="#036DE6"></stop></linearGradient></defs></svg>