<svg class="ufo-icon__icon" width="16" height="16" role="none" viewBox="0 0 16 16" xmlns='http://www.w3.org/2000/svg'><path fill="#26263380" fill-rule="evenodd" clip-rule="evenodd" d="M1 2.5A1.5 1.5 0 0 1 2.5 1h11A1.5 1.5 0 0 1 15 2.5v11a1.5 1.5 0 0 1-1.5 1.5h-11A1.5 1.5 0 0 1 1 13.5v-11zm3.487 6.696a.5.5 0 0 1 .7-.168l1.91 1.215a.5.5 0 0 0 .677-.135l2.656-3.794a.5.5 0 0 1 .884.129l1.967 5.899a.5.5 0 0 1-.475.658H3.124a.5.5 0 0 1-.43-.754l1.793-3.05zM6 4.5a1.5 1.5 0 1 1-3 0 1.5 1.5 0 0 1 3 0z"></path></svg>