<svg viewBox="0 0 16 16" fill="#26263380" xmlns="http://www.w3.org/2000/svg" class="Folder-m__icon--KgLwp FolderIcon-m__root--0a+2n qa-LeftColumn-FolderIcon" aria-hidden="true"><path fill="#26263380" fill-rule="evenodd" clip-rule="evenodd" d="M15.99 5.486c0-.72-.37-1.35-.94-1.7L9.562.439a3 3 0 00-3.124 0L.95 3.786c-.57.35-.95.98-.95 1.7v8c0 1.1.9 2 2 2h12c1.1 0 2-.9 2-2l-.01-8zM4.597 12.32a.9.9 0 010-1.273l2.13-2.13-2.13-2.13a.9.9 0 011.272-1.273L8 7.644l2.13-2.13a.9.9 0 011.274 1.272l-2.13 2.13 2.13 2.13a.9.9 0 11-1.273 1.274L8 10.19l-2.13 2.13a.9.9 0 01-1.273 0z"></path></svg>