<svg xmlns="http://www.w3.org/2000/svg" fill="none" viewBox="0 0 20 20"><path fill="#fff" fill-opacity=".8" d="M10 20C4.477 20 0 15.523 0 10S4.477 0 10 0s10 4.477 10 10-4.477 10-10 10zM5.92 7.234v.102a.5.5 0 00.5.5h.997a.499.499 0 00.499-.499c0-1.29.998-1.979 2.34-1.979 1.308 0 2.168.689 2.168 1.67 0 .928-.482 1.359-1.686 1.91l-.344.154C9.379 9.54 9 10.21 9 11.381v.119a.5.5 0 00.5.5h.997a.499.499 0 00.499-.499c0-.516.138-.723.55-.912l.345-.155c1.445-.654 2.529-1.514 2.529-3.39v-.103c0-1.978-1.72-3.441-4.164-3.441-2.478 0-4.336 1.428-4.336 3.734zM8.5 14.99c0 .867.659 1.509 1.491 1.509.85 0 1.509-.642 1.509-1.509 0-.867-.659-1.491-1.509-1.491-.832 0-1.491.624-1.491 1.491z"></path></svg>