<svg width="16" height="16" class="WidgetIcon" viewBox="0 0 16 16" fill="none" xmlns="http://www.w3.org/2000/svg"><path d="M0 8C0 5.19974 0 3.79961 0.544967 2.73005C1.02433 1.78924 1.78924 1.02433 2.73005 0.544967C3.79961 0 5.19974 0 8 0C10.8003 0 12.2004 0 13.27 0.544967C14.2108 1.02433 14.9757 1.78924 15.455 2.73005C16 3.79961 16 5.19974 16 8C16 10.8003 16 12.2004 15.455 13.27C14.9757 14.2108 14.2108 14.9757 13.27 15.455C12.2004 16 10.8003 16 8 16C5.19974 16 3.79961 16 2.73005 15.455C1.78924 14.9757 1.02433 14.2108 0.544967 13.27C0 12.2004 0 10.8003 0 8Z" fill="#FF3333"></path><path d="M0.544967 2.73005C0 3.79961 0 5.19974 0 8C0 10.8003 0 12.2004 0.544967 13.27C1.02433 14.2108 1.78924 14.9757 2.73005 15.455C3.78672 15.9934 5.16604 15.9999 7.89937 16C7.93271 16 7.96626 16 8 16C8.03374 16 8.06729 16 8.10063 16C10.834 15.9999 12.2133 15.9934 13.27 15.455C13.5272 15.324 13.7713 15.1715 14 15V5.5C14 3.29086 12.7091 2 10.5 2H0.999994C0.828464 2.2287 0.676042 2.4728 0.544967 2.73005Z" fill="#FFCC00"></path><path fill-rule="evenodd" clip-rule="evenodd" d="M3.5 6.25C3.5 6.11193 3.61193 6 3.75 6H10.25C10.3881 6 10.5 6.11193 10.5 6.25V6.75C10.5 6.88807 10.3881 7 10.25 7H3.75C3.61193 7 3.5 6.88807 3.5 6.75V6.25ZM3.5 8.75C3.5 8.61193 3.61193 8.5 3.75 8.5H6.25C6.38807 8.5 6.5 8.61193 6.5 8.75V9.25C6.5 9.38807 6.38807 9.5 6.25 9.5H3.75C3.61193 9.5 3.5 9.38807 3.5 9.25V8.75ZM3.75 11C3.61193 11 3.5 11.1119 3.5 11.25V11.75C3.5 11.8881 3.61193 12 3.75 12H8.75C8.88807 12 9 11.8881 9 11.75V11.25C9 11.1119 8.88807 11 8.75 11H3.75Z" fill="#332900"></path></svg>