<svg width="24" height="24" viewBox="0 0 24 24" fill="none" xmlns="http://www.w3.org/2000/svg" class="WidgetIcon"><path fill-rule="evenodd" clip-rule="evenodd" d="M6 3C4.34315 3 3 4.34315 3 6V10.5C3 10.7761 3.22386 11 3.5 11H10.5C10.7761 11 11 10.7761 11 10.5V3.5C11 3.22386 10.7761 3 10.5 3H6ZM13.5 3C13.2239 3 13 3.22386 13 3.5V10.5C13 10.7761 13.2239 11 13.5 11H20.5C20.7761 11 21 10.7761 21 10.5V6C21 4.34315 19.6569 3 18 3H13.5ZM3 13.5C3 13.2239 3.22386 13 3.5 13H10.5C10.7761 13 11 13.2239 11 13.5V20.5C11 20.7761 10.7761 21 10.5 21H6C4.34315 21 3 19.6569 3 18V13.5ZM14.5 19.5V14.5H19.5V18C19.5 18.8284 18.8284 19.5 18 19.5H14.5ZM13 13.5C13 13.2239 13.2239 13 13.5 13H20.5C20.7761 13 21 13.2239 21 13.5V18C21 19.6569 19.6569 21 18 21H13.5C13.2239 21 13 20.7761 13 20.5V13.5Z" fill="#32b343"></path></svg>