<svg width="24" height="24" viewBox="0 0 24 24" fill="none" xmlns="http://www.w3.org/2000/svg" class="WidgetIcon"><path fill-rule="evenodd" clip-rule="evenodd" d="M6 3C4.34315 3 3 4.34315 3 6V18C3 19.6569 4.34315 21 6 21H18C19.6569 21 21 19.6569 21 18V6C21 4.34315 19.6569 3 18 3H6ZM6 8C6 7.44772 6.44772 7 7 7H17C17.5523 7 18 7.44772 18 8C18 8.55228 17.5523 9 17 9H7C6.44772 9 6 8.55228 6 8ZM7 11C6.44772 11 6 11.4477 6 12C6 12.5523 6.44772 13 7 13H14C14.5523 13 15 12.5523 15 12C15 11.4477 14.5523 11 14 11H7ZM7 15C6.44772 15 6 15.4477 6 16C6 16.5523 6.44772 17 7 17H15C15.5523 17 16 16.5523 16 16C16 15.4477 15.5523 15 15 15H7Z" fill="#367AFE"></path><path d="M15.5 18H20.5" stroke="white" stroke-linecap="round"></path><rect x="14" y="14" width="9" height="9" rx="2" fill="#31404E"></rect><path d="M18.5 16V21" stroke="white"></path><path d="M16 18.5H21" stroke="white"></path></svg>