<svg width="24" height="24" viewBox="0 0 24 24" fill="none" xmlns="http://www.w3.org/2000/svg" class="WidgetIcon"><path fill-rule="evenodd" clip-rule="evenodd" d="M20.3146 8.55541C20.7669 9.64734 20.9997 10.8177 20.9997 11.9996H11.9997L11.9997 3C7.02926 3.00018 3 7.02955 3 12C3 16.9706 7.02944 21 12 21C16.9706 21 21 16.9706 21 12C21 9.66207 20.1086 7.53235 18.647 5.9322C19.3501 6.7025 19.9147 7.58995 20.3146 8.55541ZM17.9352 5.23427C16.5092 3.9823 14.6841 3.17399 12.6754 3.02496C13.6259 3.09653 14.5605 3.31877 15.4438 3.68464C16.3547 4.06193 17.1961 4.5858 17.9352 5.23427Z" fill="#ffd21f"></path><circle cx="12" cy="12" r="8.25" stroke="#9397AD" stroke-width="1.5"></circle></svg>