<svg width="48" height="48" fill="#fff" xmlns="http://www.w3.org/2000/svg"><path fill-rule="evenodd" clip-rule="evenodd" d="M47.515 31.998a1.655 1.655 0 000-2.34c-2.551-2.552-6.282-3.796-11.101-3.796-4.82 0-8.55 1.244-11.102 3.795a1.655 1.655 0 002.34 2.341c1.863-1.862 4.753-2.826 8.762-2.826 4.008 0 6.898.964 8.76 2.826a1.655 1.655 0 002.341 0zm-18.55-17.771c0 5.193 3.097 9.649 7.45 9.649s7.447-4.456 7.447-9.649C43.862 9.31 41.223 6 36.415 6s-7.45 3.31-7.45 8.227zm11.587 0c0 3.697-1.974 6.339-4.137 6.339-2.163 0-4.14-2.643-4.14-6.339 0-3.325 1.393-4.917 4.14-4.917 2.746 0 4.137 1.591 4.137 4.917zM4.966 18.621c0 5.877 2.896 11.131 8.276 11.131 5.379 0 8.276-5.254 8.276-11.13 0-5.752-3.31-9.311-8.276-9.311-4.966 0-8.276 3.559-8.276 9.31zm13.24-.001c0 4.76-2.086 7.82-4.965 7.82-2.88 0-4.966-3.06-4.966-7.82 0-3.938 1.857-6 4.966-6 3.108 0 4.965 2.062 4.965 6zM3.307 40.858a1.655 1.655 0 01-3.304-.198c.32-5.324 5.153-8.177 13.245-8.177 8.088 0 12.912 2.851 13.235 8.176a1.655 1.655 0 01-3.305.2c-.193-3.185-3.375-5.066-9.93-5.066-6.559 0-9.75 1.884-9.94 5.065z" fill="#fff"></path></svg>