<svg width="24" height="24" viewBox="0 0 24 24" fill="none" xmlns="http://www.w3.org/2000/svg" class="WidgetIcon"><path fill-rule="evenodd" clip-rule="evenodd" d="M3.65009 6H13.8125C16.2978 6 18 7.45222 18 9.9375V20.35C19.0258 19.8087 19.8598 18.9633 20.3869 17.9287C21 16.7254 21 15.1503 21 12C21 8.8497 21 7.27456 20.3869 6.0713C19.8476 5.01289 18.9871 4.15238 17.9287 3.61309C16.7255 3 15.1503 3 12 3C8.84973 3 7.27458 3 6.07133 3.61309C5.03678 4.14021 4.19131 4.97424 3.65009 6Z" fill="currentColor"></path><path fill-rule="evenodd" clip-rule="evenodd" d="M7 9.5C7 9.22386 7.22386 9 7.5 9H14.5C14.7761 9 15 9.22386 15 9.5V10C15 10.2761 14.7761 10.5 14.5 10.5H7.5C7.22386 10.5 7 10.2761 7 10V9.5ZM7 12.5C7 12.2239 7.22386 12 7.5 12H9.875C10.1511 12 10.375 12.2239 10.375 12.5V13C10.375 13.2761 10.1511 13.5 9.875 13.5H7.5C7.22386 13.5 7 13.2761 7 13V12.5ZM7.5 15C7.22386 15 7 15.2239 7 15.5V16C7 16.2761 7.22386 16.5 7.5 16.5H12.5C12.7761 16.5 13 16.2761 13 16V15.5C13 15.2239 12.7761 15 12.5 15H7.5Z" fill="currentColor"></path><path d="M3.75 12C3.75 10.4125 3.75058 9.26694 3.82415 8.36659C3.89699 7.47499 4.03765 6.89007 4.28134 6.4118C4.74873 5.49451 5.49451 4.74873 6.4118 4.28134C6.89007 4.03765 7.47499 3.89699 8.36659 3.82415C9.26694 3.75058 10.4125 3.75 12 3.75C13.5875 3.75 14.7331 3.75058 15.6334 3.82415C16.525 3.89699 17.1099 4.03765 17.5882 4.28134C18.5055 4.74873 19.2513 5.49451 19.7187 6.4118C19.9624 6.89007 20.103 7.47499 20.1759 8.36659C20.2494 9.26694 20.25 10.4125 20.25 12C20.25 13.5875 20.2494 14.7331 20.1759 15.6334C20.103 16.525 19.9624 17.1099 19.7187 17.5882C19.2513 18.5055 18.5055 19.2513 17.5882 19.7187C17.1099 19.9624 16.525 20.103 15.6334 20.1759C14.7331 20.2494 13.5875 20.25 12 20.25C10.4125 20.25 9.26694 20.2494 8.36659 20.1759C7.47499 20.103 6.89007 19.9624 6.4118 19.7187C5.49451 19.2513 4.74873 18.5055 4.28134 17.5882C4.03765 17.1099 3.89699 16.525 3.82415 15.6334C3.75058 14.7331 3.75 13.5875 3.75 12Z" stroke="yellow" stroke-width="1.5"></path></svg>