<svg viewBox="0 0 16 16" fill="#26263380" xmlns="http://www.w3.org/2000/svg" class="Folder-m__icon--KgLwp FolderIcon-m__root--0a+2n qa-LeftColumn-FolderIcon" aria-hidden="true"><path fill="#26263380" d="M14.47 4.359a6.75 6.75 0 00-1.202-1.627 6.748 6.748 0 00-1.625-1.2l-.002-.002.92-.92c.495-.495 1.308-.813 2.475.354 1.166 1.167.848 1.98.353 2.475l-.92.92zm-1.128 1.127L4.73 14.098a2.5 2.5 0 01-.861.562l-2.552.994a.75.75 0 01-.971-.971l.993-2.552a2.5 2.5 0 01.562-.861l8.613-8.613a5.235 5.235 0 011.693 1.135c.5.501.88 1.078 1.135 1.694z"></path></svg>