<svg width="48" height="48" fill="none" xmlns="http://www.w3.org/2000/svg"><path d="M12 4a2 2 0 114 0v2a2 2 0 11-4 0V4zM32 4a2 2 0 114 0v2a2 2 0 11-4 0V4z" fill="#fff"></path><path d="M6 14a6 6 0 016-6h24a6 6 0 016 6v20a6 6 0 01-6 6H12a6 6 0 01-6-6V14z" stroke="#fff" stroke-width="3"></path><path d="M23.245 32H12.458v-3.036a78.157 78.157 0 003.496-2.737c.966-.797 1.74-1.526 2.323-2.185.583-.66 1.005-1.28 1.265-1.863.261-.583.391-1.188.391-1.817 0-.767-.23-1.365-.69-1.794-.444-.445-1.073-.667-1.885-.667-.813 0-1.595.176-2.347.529a9.094 9.094 0 00-2.092 1.403v-2.898a8.518 8.518 0 012.092-1.173c.767-.307 1.703-.46 2.806-.46.813 0 1.557.115 2.232.345.674.215 1.25.537 1.724.966.491.43.867.958 1.128 1.587.26.613.39 1.311.39 2.093a5.32 5.32 0 01-.46 2.185c-.29.69-.743 1.388-1.357 2.093-.598.705-1.364 1.449-2.3 2.231a80.113 80.113 0 01-3.311 2.553h7.383V32zm12.531-4.715c0 .751-.146 1.434-.437 2.047a4.394 4.394 0 01-1.242 1.564c-.521.43-1.158.759-1.909.989-.751.23-1.587.345-2.507.345-1.12 0-2.07-.13-2.852-.391-.767-.276-1.395-.59-1.886-.943v-2.783c.245.184.514.368.805.552.307.184.636.353.989.506.353.138.744.26 1.173.368.445.092.928.138 1.449.138 1.058 0 1.84-.222 2.346-.667.506-.46.759-1.081.759-1.863 0-1.58-1.02-2.369-3.059-2.369H27.45v-2.622h2.07c.736 0 1.326-.184 1.771-.552.46-.383.69-.935.69-1.656 0-.66-.222-1.173-.667-1.541-.445-.368-1.096-.552-1.955-.552-.874 0-1.633.161-2.277.483a9.756 9.756 0 00-1.771 1.081v-2.783c.506-.383 1.112-.698 1.817-.943.705-.26 1.625-.391 2.76-.391.813 0 1.549.107 2.208.322.66.215 1.219.514 1.679.897.46.383.813.851 1.058 1.403a4.21 4.21 0 01.368 1.771c0 .506-.092.966-.276 1.38a3.728 3.728 0 01-.69 1.104 3.47 3.47 0 01-.989.759 4.433 4.433 0 01-1.15.391c.49.077.958.222 1.403.437a3.82 3.82 0 011.978 2.001c.2.445.299.95.299 1.518z" fill="#fff"></path></svg>