<svg width="24" height="24" viewBox="0 0 24 24" fill="none" xmlns="http://www.w3.org/2000/svg"><path fill="#fff" fill-rule="evenodd" clip-rule="evenodd" d="m18.681 8.333 2.031-.196a.888.888 0 0 1 .945.654l.312 1.165a.887.887 0 0 1-.49 1.039l-1.858.845a7.545 7.545 0 0 1-.3 2.284l1.612 1.33a.887.887 0 0 1 .206 1.13l-.602 1.044a.887.887 0 0 1-1.082.387l-1.962-.734a7.583 7.583 0 0 1-1.814 1.39l.198 2.042a.888.888 0 0 1-.655.945l-1.166.311a.886.886 0 0 1-1.037-.49l-.851-1.868a7.554 7.554 0 0 1-2.672-.42l-1.402 1.512a.89.89 0 0 1-1.142.138l-1.006-.663a.89.89 0 0 1-.324-1.103l.828-1.867a7.576 7.576 0 0 1-1.11-1.537l-2.053.199a.889.889 0 0 1-.945-.655l-.311-1.165a.888.888 0 0 1 .49-1.04l1.878-.854A7.594 7.594 0 0 1 4.7 9.88L3.145 8.598a.889.889 0 0 1-.205-1.13l.602-1.044a.89.89 0 0 1 1.082-.388l1.883.704a7.57 7.57 0 0 1 1.834-1.41l-.196-2.043a.886.886 0 0 1 .652-.944l1.166-.313a.889.889 0 0 1 1.04.491l.848 1.868a7.578 7.578 0 0 1 2.75.45l1.383-1.491a.889.889 0 0 1 1.142-.137l1.005.663c.364.238.501.705.325 1.102l-.831 1.877c.41.45.765.946 1.056 1.48zM8.14 13.02c.574 2.115 2.76 3.387 4.914 2.862 2.133-.608 3.38-2.787 2.806-4.902-.574-2.115-2.76-3.387-4.914-2.862-2.133.608-3.38 2.787-2.806 4.902z"></path></svg>