<svg width="536" height="566" viewBox="0 0 536 566" xmlns="http://www.w3.org/2000/svg" xmlns:xlink="http://www.w3.org/1999/xlink"><title>downloads</title><defs><filter x="-68.9%" y="-72.4%" width="248.9%" height="315.3%" filterUnits="objectBoundingBox" id="a"><feOffset dy="23" in="SourceAlpha" result="shadowOffsetOuter1"/><feGaussianBlur stdDeviation="22.5" in="shadowOffsetOuter1" result="shadowBlurOuter1"/><feColorMatrix values="0 0 0 0 0.062745098 0 0 0 0 0.176470588 0 0 0 0 0.309803922 0 0 0 0.2 0" in="shadowBlurOuter1" result="shadowMatrixOuter1"/><feMerge><feMergeNode in="shadowMatrixOuter1"/><feMergeNode in="SourceGraphic"/></feMerge></filter><path d="M80.15 70.867C97.19 62.845 108.76 51.663 106 45.89c-2.764-5.77-18.818-3.942-35.858 4.08-17.04 8.023-28.61 19.204-25.846 24.974 2.763 5.77 18.818 3.946 35.857-4.077z" id="c"/><filter x="-136.8%" y="-238.9%" width="373.5%" height="577.8%" filterUnits="objectBoundingBox" id="b"><feMorphology radius="9" operator="dilate" in="SourceAlpha" result="shadowSpreadOuter1"/><feOffset in="shadowSpreadOuter1" result="shadowOffsetOuter1"/><feGaussianBlur stdDeviation="19.5" in="shadowOffsetOuter1" result="shadowBlurOuter1"/><feColorMatrix values="0 0 0 0 1 0 0 0 0 1 0 0 0 0 1 0 0 0 0.6 0" in="shadowBlurOuter1"/></filter><linearGradient x1="35.276%" y1="12.669%" x2="50%" y2="68.332%" id="d"><stop stop-color="#FFF" offset="0%"/><stop stop-color="#FFF" stop-opacity="0" offset="100%"/></linearGradient><filter x="-59%" y="-42.1%" width="218%" height="218%" filterUnits="objectBoundingBox" id="e"><feOffset dy="15" in="SourceAlpha" result="shadowOffsetOuter1"/><feGaussianBlur stdDeviation="15" in="shadowOffsetOuter1" result="shadowBlurOuter1"/><feColorMatrix values="0 0 0 0 0.062745098 0 0 0 0 0.176470588 0 0 0 0 0.309803922 0 0 0 0.2 0" in="shadowBlurOuter1" result="shadowMatrixOuter1"/><feMerge><feMergeNode in="shadowMatrixOuter1"/><feMergeNode in="SourceGraphic"/></feMerge></filter><filter x="-36%" y="-30.7%" width="171.9%" height="186.1%" filterUnits="objectBoundingBox" id="f"><feOffset dy="15" in="SourceAlpha" result="shadowOffsetOuter1"/><feGaussianBlur stdDeviation="15" in="shadowOffsetOuter1" result="shadowBlurOuter1"/><feColorMatrix values="0 0 0 0 0.062745098 0 0 0 0 0.176470588 0 0 0 0 0.309803922 0 0 0 0.2 0" in="shadowBlurOuter1" result="shadowMatrixOuter1"/><feMerge><feMergeNode in="shadowMatrixOuter1"/><feMergeNode in="SourceGraphic"/></feMerge></filter><path id="g" d="M0 0h57.792l12.166 18.3H146V122H0z"/><filter x="-51.5%" y="-35.4%" width="202.9%" height="199.1%" filterUnits="objectBoundingBox" id="h"><feOffset dy="15" in="SourceAlpha" result="shadowOffsetOuter1"/><feGaussianBlur stdDeviation="15" in="shadowOffsetOuter1" result="shadowBlurOuter1"/><feColorMatrix values="0 0 0 0 0.062745098 0 0 0 0 0.176470588 0 0 0 0 0.309803922 0 0 0 0.2 0" in="shadowBlurOuter1" result="shadowMatrixOuter1"/><feMerge><feMergeNode in="shadowMatrixOuter1"/><feMergeNode in="SourceGraphic"/></feMerge></filter><path id="i" d="M0 0h90v84H0z"/><path id="k" d="M.816.672h67.1v67.606H.816z"/><path id="m" d="M.446.52h130.74v131.722H.446z"/><path id="o" d="M0 0h90v84H0z"/><path id="q" d="M0 0h90v84H0z"/><path id="s" d="M0 0h90v84H0z"/><path id="u" d="M0 0h90v84H0z"/><path id="w" d="M0 0h90v84H0z"/><path id="y" d="M0 0h90v84H0z"/><path id="A" d="M0 0h90v84H0z"/><filter x="-76.1%" y="-42.6%" width="252.2%" height="219.3%" filterUnits="objectBoundingBox" id="C"><feOffset dy="15" in="SourceAlpha" result="shadowOffsetOuter1"/><feGaussianBlur stdDeviation="15" in="shadowOffsetOuter1" result="shadowBlurOuter1"/><feColorMatrix values="0 0 0 0 0.062745098 0 0 0 0 0.176470588 0 0 0 0 0.309803922 0 0 0 0.2 0" in="shadowBlurOuter1" result="shadowMatrixOuter1"/><feMerge><feMergeNode in="shadowMatrixOuter1"/><feMergeNode in="SourceGraphic"/></feMerge></filter><filter x="-53.6%" y="-50.7%" width="207.1%" height="241.9%" filterUnits="objectBoundingBox" id="D"><feOffset dy="15" in="SourceAlpha" result="shadowOffsetOuter1"/><feGaussianBlur stdDeviation="15" in="shadowOffsetOuter1" result="shadowBlurOuter1"/><feColorMatrix values="0 0 0 0 0.062745098 0 0 0 0 0.176470588 0 0 0 0 0.309803922 0 0 0 0.2 0" in="shadowBlurOuter1" result="shadowMatrixOuter1"/><feMerge><feMergeNode in="shadowMatrixOuter1"/><feMergeNode in="SourceGraphic"/></feMerge></filter><linearGradient x1="0%" y1="50%" y2="50%" id="E"><stop stop-color="#FFDA3E" offset="0%"/><stop stop-color="#FFB137" offset="36.899%"/><stop stop-color="#FFAD37" offset="62.182%"/><stop stop-color="#FFDA3E" offset="100%"/></linearGradient><linearGradient x1="50%" y1="19.237%" x2="50%" y2="70.94%" id="F"><stop stop-color="#FFC13A" offset="0%"/><stop stop-color="#FFDA3E" offset="100%"/></linearGradient><linearGradient x1="50%" y1=".832%" x2="50.605%" y2="50%" id="G"><stop stop-color="#FF6562" offset="0%"/><stop stop-color="#F33" offset="100%"/></linearGradient><filter x="-76.1%" y="-42.6%" width="252.2%" height="219.3%" filterUnits="objectBoundingBox" id="H"><feOffset dy="15" in="SourceAlpha" result="shadowOffsetOuter1"/><feGaussianBlur stdDeviation="15" in="shadowOffsetOuter1" result="shadowBlurOuter1"/><feColorMatrix values="0 0 0 0 0.062745098 0 0 0 0 0.176470588 0 0 0 0 0.309803922 0 0 0 0.2 0" in="shadowBlurOuter1" result="shadowMatrixOuter1"/><feMerge><feMergeNode in="shadowMatrixOuter1"/><feMergeNode in="SourceGraphic"/></feMerge></filter></defs><g fill="none" fill-rule="evenodd"><g filter="url(#a)" transform="translate(218 207)"><path d="M93.208 5.183c-5.536-.09-9.272-1.7-13.768-3.123-9.86-3.128-22.068-2.95-33.246 2.316-9.668 4.548-16.846 12.092-21.06 20.223-3.012 5.808-5.565 12.545-9.336 16.668-.187.194-.373.387-.556.58l-.015.015c-.024.023-.046.047-.067.07C2.787 54.978-2.763 68.374 1.333 76.926c9.01 18.813 138.936-42.358 129.922-61.17-3.528-7.367-18.69-11.876-38.047-10.572z" id="Combined-Shape" fill="#000"/><path d="M81.043 76.325c36.025-16.96 57.524-46.793 51.68-58.992-5.843-12.2-40.96-10.016-76.984 6.947C19.713 41.242-3.577 66.555 2.267 78.755c5.843 12.2 42.753 14.533 78.775-2.43z" id="Fill-6" fill="#07F"/><use fill="#000" filter="url(#b)" xlink:href="#c"/><use fill="#FFF" xlink:href="#c"/><path fill="url(#d)" opacity=".8" d="M44.57 75.08l.28 21.65 47.407-2.743L123.734 62.9l-18.49-17.633"/></g><path d="M284 196.707V117m0 250.707V305" id="Shape" stroke="#000" stroke-width="2" opacity=".2" stroke-linecap="round" stroke-dasharray="5,6"/><path id="Shape" fill="#C4C4C4" fill-rule="nonzero" d="M284 375.314l-6.728-6.728-1.414 1.414 7.435 7.435.707.707 8.142-8.142-1.414-1.414z"/><path d="M214 250h-63m266 0h-63m-16-50.59L379.41 158m-144 45.41L190 158" id="Shape" stroke="#000" stroke-width="2" opacity=".2" stroke-linecap="round" stroke-dasharray="5,6"/><path d="M44.328.344c24.482 0 44.328 19.846 44.328 44.328C88.656 69.154 68.81 89 44.328 89 19.846 89 0 69.154 0 44.672 0 20.19 19.846.344 44.328.344" id="Group" filter="url(#e)" transform="translate(241 13.656)" fill-rule="nonzero" fill="#FFF"/><path d="M313.32 39.888l-23.688 22.696v29.51c0 .52-1.742.934-4.304.97-2.46-.036-4.304-.45-4.304-.97v-29.51l-23.536-23.25c-.38-.382.61-1.935 2.48-3.805s3.23-2.62 3.577-2.24l21.748 21.6 21.858-21.01c.383-.38 2.074.24 3.944 2.11 1.87 1.87 2.573 3.516 2.227 3.897" id="Shape" fill="#EE0001" fill-rule="nonzero"/><g filter="url(#f)" transform="translate(208 399)" fill-rule="nonzero"><use fill="#FDEFB2" fill-rule="evenodd" xlink:href="#g"/><path stroke="#F4DC49" d="M.5.5v121h145V18.8H69.69L57.524.5H.5z"/></g><path d="M271 460v-15h18v15h10l-19.392 19L260 460h11zm-13 29h44v-5.946h-44V489z" fill-rule="nonzero" fill="#EEC200"/><path d="M0 0h102v106H0z" id="Group" filter="url(#h)" transform="translate(30.41 197)" fill-rule="nonzero" fill="#FFF"/><g id="Group"><g fill-rule="nonzero" fill="#C2E5FF"><path id="i" d="M36.41 203h90v84h-90z"/></g><g id="Clipped" transform="translate(36.41 203)"><mask id="j" fill="#fff"><use xlink:href="#i"/></mask><g id="Group" mask="url(#j)"><g fill-rule="nonzero" fill="#5F7A92"><path id="k" d="M17.32 13.566l47.44 47.44-47.797 47.797-47.44-47.44z"/></g><g id="Clipped" transform="translate(-17.224 26.71)"><mask id="l" fill="#fff"><use xlink:href="#k"/></mask><path d="M13.606-24.18s6.5-1.366 9.36-1.297c2.395.057 6.4 1.675 6.4 1.675s-.313 1.084-1.608 1.62c-.667.277-1.712-.01-2.45-.218-.74-.21-1.437.853-.712 1.468 1.058.898 1.8 2.975-.348 4.454-1.583 1.09-2.966.032-3.908-.917-.942-.948-2.093-.434-1.788 1.116.62 3.147-3.635 6.11-3.635 6.11s-2.102-3.688-2.104-5.688c-.003-2.518.794-8.32.794-8.32z" id="Shape" fill="#FFF" fill-rule="nonzero" mask="url(#l)" transform="rotate(135 21.09 -17.826)"/></g><g><g fill-rule="nonzero" fill="#3F4E5B"><path id="m" d="M58.49 2.446L150.92 94.88l-93.128 93.127-92.433-92.434z"/></g><g id="Clipped" transform="translate(-7.674 28.846)"><mask id="n" fill="#fff"><use xlink:href="#m"/></mask><path d="M55.93-22.452s9.812-1.866 14.62-1.84c2.666.016 7.804 1.963 7.804 1.963s-.506 1.507-2.52 2.34c-2.015.836-5.21.478-4.23 3.273 1.875 5.343-2.72 9.2-4.76 10.066-5.48 2.32-7.485-5.567-7.61-1.177-.122 4.39-3.244 6.432-3.244 6.432s-1.033-4.56-1.04-7.178c-.013-4.402.98-13.878.98-13.878v-.002z" id="Shape" fill="#FFF" fill-rule="nonzero" mask="url(#n)" transform="rotate(45 66.652 -12.843)"/></g></g></g></g><g id="Clipped" transform="translate(36.41 203)"><mask id="p" fill="#fff"><use xlink:href="#o"/></mask><path d="M28.135 64.453h-.16c-3.3 0-5.975 2.584-5.975 5.773C22 73.416 24.677 76 27.976 76h30.85c1.978 0 3.582-1.596 3.582-3.566 0-1.97-1.603-3.566-3.583-3.566h-2.858c.243-.517.38-1.092.38-1.698 0-2.25-1.872-4.076-4.178-4.076h-1.99C49.12 60.126 46.254 58 42.887 58h-7.11c-3.862 0-7.064 2.796-7.642 6.453zm68.238-18.53c.07-.37.108-.75.108-1.14 0-3.314-2.69-6.014-6.01-6.014H76.36c-3.04 0-5.56 2.263-5.96 5.2h-.262c-1.802 0-3.255 1.456-3.255 3.25 0 .23.024.453.07.67H65.59c-2.25 0-4.06 1.814-4.06 4.054 0 2.236 1.82 4.056 4.06 4.056h34.984c2.787 0 5.038-2.256 5.038-5.04 0-2.777-2.256-5.038-5.04-5.038h-4.2z" id="Shape" fill="#FFF" fill-rule="nonzero" mask="url(#p)"/></g><g id="Clipped" transform="translate(36.41 203)"><mask id="r" fill="#fff"><use xlink:href="#q"/></mask><path d="M48.673 63.692l-.918 3.693m-3.673 0l-.92-3.693" id="Shape" stroke="#939393" stroke-width=".5" stroke-linecap="round" mask="url(#r)"/></g><g id="Clipped" transform="translate(36.41 203)"><mask id="t" fill="#fff"><use xlink:href="#s"/></mask><path d="M60.612 45.284c0-8.186-6.578-14.822-14.694-14.822-8.115 0-14.694 6.636-14.694 14.822 0 2.798.77 5.415 2.105 7.648.272.458.57.897.89 1.32.445.59 5.66 6.227 5.66 6.227h12.174s5.155-5.696 5.537-6.2c1.903-2.52 3.02-5.626 3.02-8.997h.002z" id="Shape" fill="#FF654A" fill-rule="nonzero" mask="url(#t)"/></g><g id="Clipped" transform="translate(36.41 203)"><mask id="v" fill="#fff"><use xlink:href="#u"/></mask><path id="Shape" fill="#FFCB00" fill-rule="nonzero" mask="url(#v)" d="M48.855 63.692h-5.763L39.222 60h13.336"/></g><g id="Clipped" transform="translate(36.41 203)"><mask id="x" fill="#fff"><use xlink:href="#w"/></mask><path id="Shape" fill="#333" fill-rule="nonzero" mask="url(#x)" d="M48.1 71.077h-4.235l-.702-3.692h5.51"/></g><g id="Clipped" transform="translate(36.41 203)"><mask id="z" fill="#fff"><use xlink:href="#y"/></mask><path d="M54.184 45.284c0-8.186-3.7-14.822-8.266-14.822-4.564 0-8.265 6.636-8.265 14.822 0 2.798.432 5.415 1.184 7.648.154.458.5 1.32.5 1.32L42.627 60h6.635s3.01-5.215 3.225-5.72c1.07-2.518 1.7-5.625 1.7-8.996h-.003z" id="Shape" fill="#FFF" fill-rule="nonzero" mask="url(#z)"/></g><g transform="translate(36.41 203)"><mask id="B" fill="#fff"><use xlink:href="#A"/></mask><path d="M48.673 45.284c0-8.186-1.233-14.822-2.755-14.822-1.52 0-2.755 6.636-2.755 14.822 0 2.798.145 5.415.395 7.648.05.458.107.897.167 1.32.084.59 1.096 5.748 1.096 5.748h2.214s1.002-5.215 1.074-5.72c.357-2.518.566-5.625.566-8.996z" id="Shape" fill="#FF654A" fill-rule="nonzero" mask="url(#B)"/></g></g><path d="M0 0h53.947L69 15.087V88H0z" id="Group" filter="url(#C)" transform="translate(437 206)" fill-rule="nonzero" fill="#FFF"/><g id="Group" filter="url(#D)" transform="translate(403.41 67)" fill-rule="nonzero"><path fill="url(#E)" d="M0 74h97V0H0z" transform="translate(.59)"/><g id="path-3-link" fill="url(#F)" transform="translate(.59 15)"><path id="path-3" d="M48.765 0L0 59h97z"/></g><path d="M49.355 15L.59 74h97z" fill="#FFDA3E"/><path d="M97 0L53.556 43.855c-2.832 2.86-7.28 2.86-10.112 0L0 0h97z" fill="url(#G)" transform="matrix(-1 0 0 1 97.59 0)"/></g><path id="Shape" fill="#E5E5E5" fill-rule="nonzero" d="M491 206l15 15h-15"/><g id="Group"><g id="Group-3" transform="translate(491 279)"><circle id="Oval" fill="#000" transform="rotate(15 14.5 14.5)" cx="14.5" cy="14.5" r="11.5"/><path d="M16.857 13.27c.308-.306.308-.835 0-1.14-.167-.167-.363-.25-.586-.25-.194 0-.418.083-.585.25l-.084.083-1.144 1.14-1.116 1.112-1.145 1.14-.084.084c-.306.305-.306.833 0 1.14.17.166.364.25.587.25.196 0 .42-.084.587-.25l.083-.085 1.145-1.14 1.117-1.112 1.144-1.14.083-.083zm3.49-3.226l-1.424-1.418c-.837-.835-2.317-.835-3.182 0l-1.423 1.418c-.81.806-.866 2.113-.14 3.003l1.173-1.168c-.112-.223-.056-.5.11-.696l1.425-1.418c.112-.11.28-.167.447-.167.168 0 .307.055.447.166l1.423 1.418c.25.25.25.64 0 .862l-1.424 1.418c-.17.167-.448.223-.67.11l-1.174 1.17c.39.333.894.528 1.424.528.586 0 1.173-.223 1.59-.668l1.425-1.418c.838-.862.838-2.28-.028-3.142zM13.62 17.05c.11.224.055.502-.113.697l-1.424 1.418c-.223.222-.642.222-.865 0l-1.424-1.418c-.25-.25-.25-.64 0-.863l1.424-1.418c.11-.11.28-.167.446-.167.084 0 .168.027.252.055l1.172-1.168c-.865-.695-2.205-.667-3.015.14L8.65 15.743c-.866.862-.866 2.28 0 3.17l1.423 1.42c.42.416.977.666 1.59.666.616 0 1.174-.222 1.593-.667l1.424-1.42c.81-.805.865-2.112.14-3.002l-1.2 1.14z" id="Shape_2_" fill="#FFF"/></g></g><path d="M482.317 260.233v-13.845l-16.21 3.705h.25v20.764h-.067c-.246 2.88-2.675 5.143-5.634 5.143-3.124 0-5.656-2.518-5.656-5.625s2.532-5.625 5.656-5.625c.71 0 1.39.13 2.016.368v-15.025h.006v-9.77L485.96 235v10.208h.04v20.763h-.066c-.245 2.884-2.674 5.146-5.634 5.146-3.124 0-5.656-2.518-5.656-5.626 0-3.108 2.532-5.626 5.656-5.626.71 0 1.39.13 2.017.37z" id="Shape" fill="#4981D7" fill-rule="nonzero"/><path d="M0 0h53.947L69 15.087V88H0" filter="url(#H)" transform="translate(108 51)" fill-rule="nonzero" fill="#FFF"/><path d="M162 51l15 15h-15M93 82.59L132 80v52l-39-2.59" id="Shape" fill="#4981D7" fill-rule="nonzero"/><path d="M139 129h29v2h-29v-2zm0-8h29v2h-29v-2zm0-8h29v2h-29v-2zm0-8h29v2h-29v-2zm0-8h29v2h-29v-2zm0-8h29v2h-29v-2zm0-8h29v2h-29v-2zm-25-8h54v2h-54v-2zm0-8h40v2h-40v-2zm0-8h40v2h-40v-2z" id="Shape" fill="#CECECE" fill-rule="nonzero"/><path fill="#FFF" fill-rule="nonzero" d="M105.286 115L101 99h2.857l2.857 11.636L109.57 99h2.86l2.856 11.636L118.143 99H121l-4.286 16h-2.857L111 103.364 108.143 115"/><g id="Group-3" transform="translate(162 124)"><circle id="Oval" fill="#000" transform="rotate(15 14.5 14.5)" cx="14.5" cy="14.5" r="11.5"/><path d="M16.857 13.27c.308-.306.308-.835 0-1.14-.167-.167-.363-.25-.586-.25-.194 0-.418.083-.585.25l-.084.083-1.144 1.14-1.116 1.112-1.145 1.14-.084.084c-.306.305-.306.833 0 1.14.17.166.364.25.587.25.196 0 .42-.084.587-.25l.083-.085 1.145-1.14 1.117-1.112 1.144-1.14.083-.083zm3.49-3.226l-1.424-1.418c-.837-.835-2.317-.835-3.182 0l-1.423 1.418c-.81.806-.866 2.113-.14 3.003l1.173-1.168c-.112-.223-.056-.5.11-.696l1.425-1.418c.112-.11.28-.167.447-.167.168 0 .307.055.447.166l1.423 1.418c.25.25.25.64 0 .862l-1.424 1.418c-.17.167-.448.223-.67.11l-1.174 1.17c.39.333.894.528 1.424.528.586 0 1.173-.223 1.59-.668l1.425-1.418c.838-.862.838-2.28-.028-3.142zM13.62 17.05c.11.224.055.502-.113.697l-1.424 1.418c-.223.222-.642.222-.865 0l-1.424-1.418c-.25-.25-.25-.64 0-.863l1.424-1.418c.11-.11.28-.167.446-.167.084 0 .168.027.252.055l1.172-1.168c-.865-.695-2.205-.667-3.015.14L8.65 15.743c-.866.862-.866 2.28 0 3.17l1.423 1.42c.42.416.977.666 1.59.666.616 0 1.174-.222 1.593-.667l1.424-1.42c.81-.805.865-2.112.14-3.002l-1.2 1.14z" id="Shape_2_" fill="#FFF"/></g><g transform="translate(117 288)"><circle fill="#000" transform="rotate(15 14.5 14.5)" cx="14.5" cy="14.5" r="11.5"/><path d="M16.857 13.27c.308-.306.308-.835 0-1.14-.167-.167-.363-.25-.586-.25-.194 0-.418.083-.585.25l-.084.083-1.144 1.14-1.116 1.112-1.145 1.14-.084.084c-.306.305-.306.833 0 1.14.17.166.364.25.587.25.196 0 .42-.084.587-.25l.083-.085 1.145-1.14 1.117-1.112 1.144-1.14.083-.083zm3.49-3.226l-1.424-1.418c-.837-.835-2.317-.835-3.182 0l-1.423 1.418c-.81.806-.866 2.113-.14 3.003l1.173-1.168c-.112-.223-.056-.5.11-.696l1.425-1.418c.112-.11.28-.167.447-.167.168 0 .307.055.447.166l1.423 1.418c.25.25.25.64 0 .862l-1.424 1.418c-.17.167-.448.223-.67.11l-1.174 1.17c.39.333.894.528 1.424.528.586 0 1.173-.223 1.59-.668l1.425-1.418c.838-.862.838-2.28-.028-3.142zM13.62 17.05c.11.224.055.502-.113.697l-1.424 1.418c-.223.222-.642.222-.865 0l-1.424-1.418c-.25-.25-.25-.64 0-.863l1.424-1.418c.11-.11.28-.167.446-.167.084 0 .168.027.252.055l1.172-1.168c-.865-.695-2.205-.667-3.015.14L8.65 15.743c-.866.862-.866 2.28 0 3.17l1.423 1.42c.42.416.977.666 1.59.666.616 0 1.174-.222 1.593-.667l1.424-1.42c.81-.805.865-2.112.14-3.002l-1.2 1.14z" fill="#FFF"/></g></g></svg>