<svg viewBox="0 0 16 16" fill="#26263380" xmlns="http://www.w3.org/2000/svg" class="Folder-m__icon--KgLwp FolderIcon-m__root--0a+2n qa-LeftColumn-FolderIcon" aria-hidden="true"><path fill-rule="evenodd" clip-rule="evenodd" d="M6 12.247c-.767 0-1.5-.13-2.174-.37-.75.518-1.762.77-3.037.758a.2.2 0 01-.155-.323c.523-.669.809-1.317.859-1.944A5.405 5.405 0 010 6.622C0 3.435 2.686.997 6 .997s6 2.438 6 5.625c0 3.188-2.686 5.625-6 5.625zm7.5-5.625c0 3.321-2.295 6.024-5.437 6.858A5.88 5.88 0 0010.5 14c.703 0 1.375-.12 1.993-.34.68.47 1.597.702 2.749.695a.2.2 0 00.157-.322c-.467-.603-.722-1.189-.767-1.756A4.955 4.955 0 0016 8.843c0-2.018-1.175-3.708-2.902-4.56.26.729.402 1.515.402 2.34z" fill="#26263380"></path></svg>