<svg viewBox="0 0 16 16" fill="#26263380" xmlns="http://www.w3.org/2000/svg" class="Folder-m__icon--KgLwp FolderIcon-m__root--0a+2n qa-LeftColumn-FolderIcon" aria-hidden="true"><path fill-rule="evenodd" clip-rule="evenodd" d="M4 0a1 1 0 000 2h8a1 1 0 100-2H4zM1.5 4a1 1 0 011-1h11a1 1 0 110 2h-11a1 1 0 01-1-1zM.218 7.092C0 7.52 0 8.08 0 9.2v3.6c0 1.12 0 1.68.218 2.108a2 2 0 00.874.874C1.52 16 2.08 16 3.2 16h9.6c1.12 0 1.68 0 2.108-.218a2 2 0 00.874-.874C16 14.48 16 13.92 16 12.8V9.2c0-1.12 0-1.68-.218-2.108a2 2 0 00-.874-.874C14.48 6 13.92 6 12.8 6H3.2c-1.12 0-1.68 0-2.108.218a2 2 0 00-.874.874zM2.888 8c-.363 0-.486.486-.166.658l4.804 2.587a1 1 0 00.948 0l4.804-2.587c.32-.172.197-.658-.166-.658H2.888z" fill="#26263380"></path></svg>