<svg width="24" height="24" fill="none" xmlns="http://www.w3.org/2000/svg"><path d="M7.82 19.83c-.206.566-.864.826-1.365.492a10.004 10.004 0 0 1-4.394-9.423c.066-.598.688-.936 1.253-.73l2.981 1.085c.429.155.687.583.714 1.037a5.008 5.008 0 0 0 1.56 3.346c.33.313.492.785.336 1.213L7.82 19.83Zm3.079 2.11c-.598-.067-.936-.689-.73-1.255l1.085-2.98c.155-.429.583-.687 1.037-.714a5.009 5.009 0 0 0 3.346-1.56c.313-.33.785-.492 1.213-.336l2.98 1.085c.566.206.826.864.492 1.365a10.004 10.004 0 0 1-9.423 4.394Zm2.202-19.88c.598.067.936.689.73 1.254l-1.085 2.981c-.155.429-.583.687-1.037.714a5.009 5.009 0 0 0-3.346 1.56c-.313.33-.785.492-1.213.336L4.17 7.82c-.566-.206-.826-.864-.492-1.365a10.004 10.004 0 0 1 9.423-4.394Zm3.079 2.11c.206-.566.864-.826 1.365-.492a10.004 10.004 0 0 1 4.394 9.423c-.066.598-.688.936-1.253.73l-2.982-1.085c-.428-.155-.686-.583-.713-1.037a5.009 5.009 0 0 0-1.56-3.346c-.33-.313-.492-.785-.336-1.213l1.085-2.98Z" fill="#fff"></path></svg>