<svg xmlns="http://www.w3.org/2000/svg" xmlns:xlink="http://www.w3.org/1999/xlink" width="544" height="451" viewBox="0 0 544 451"><defs><path id="b" d="M92 400.499l-18-9.023 18-9.925v-1.55C92 371.164 99.161 364 107.998 364h74.004c8.835 0 15.998 7.17 15.998 16v22c0 8.836-7.161 16-15.998 16h-74.004C99.163 418 92 410.83 92 402v-1.501z"/><filter id="a" width="108.1%" height="118.5%" x="-4%" y="-7.4%" filterUnits="objectBoundingBox"><feOffset dy="1" in="SourceAlpha" result="shadowOffsetOuter1"/><feGaussianBlur in="shadowOffsetOuter1" result="shadowBlurOuter1" stdDeviation="1.5"/><feColorMatrix in="shadowBlurOuter1" values="0 0 0 0 0 0 0 0 0 0 0 0 0 0 0 0 0 0 0.15 0"/></filter><path id="d" d="M92 289.499l-18-9.023 18-9.925V55.006C92 43.956 100.96 35 112 35h382c11.046 0 20 8.96 20 20.006v253.988c0 11.05-8.96 20.006-20 20.006H112c-11.046 0-20-8.96-20-20.006V289.5z"/><filter id="c" width="123.9%" height="135.7%" x="-11.9%" y="-12.8%" filterUnits="objectBoundingBox"><feOffset dy="15" in="SourceAlpha" result="shadowOffsetOuter1"/><feGaussianBlur in="shadowOffsetOuter1" result="shadowBlurOuter1" stdDeviation="15"/><feColorMatrix in="shadowBlurOuter1" values="0 0 0 0 0.062745098 0 0 0 0 0.176470588 0 0 0 0 0.309803922 0 0 0 0.2 0"/></filter><filter id="e" width="160.3%" height="190.5%" x="-30.2%" y="-32.3%" filterUnits="objectBoundingBox"><feOffset dy="15" in="SourceAlpha" result="shadowOffsetOuter1"/><feGaussianBlur in="shadowOffsetOuter1" result="shadowBlurOuter1" stdDeviation="15"/><feColorMatrix in="shadowBlurOuter1" result="shadowMatrixOuter1" values="0 0 0 0 0.062745098 0 0 0 0 0.176470588 0 0 0 0 0.309803922 0 0 0 0.2 0"/><feMerge><feMergeNode in="shadowMatrixOuter1"/><feMergeNode in="SourceGraphic"/></feMerge></filter><linearGradient id="f" x1="12.658%" x2="71.282%" y1="41.531%" y2="30.511%"><stop offset="0%" stop-color="#3B3B89"/><stop offset="100%"/></linearGradient><linearGradient id="g" x1="54.321%" x2="52.702%" y1="4.321%" y2="77.818%"><stop offset="0%" stop-color="#FFF"/><stop offset="100%" stop-color="#F5F5F5" stop-opacity=".001"/><stop offset="100%" stop-color="#F5F5F5" stop-opacity="0"/></linearGradient></defs><g fill="none" fill-rule="evenodd" transform="translate(0 -20)"><use fill="#000" filter="url(#a)" xlink:href="#b"/><use fill="#FFF" xlink:href="#b"/><use fill="#000" filter="url(#c)" xlink:href="#d"/><use fill="#FFF" xlink:href="#d"/><rect width="408" height="280" x="99" y="42" fill="#1D1D4C" rx="14"/><path fill="#C2E5FF" d="M99 152v156.108c0 7.735 6.266 14.005 14 14.005h157.014C260.866 232.141 189.108 160.683 99 152z"/><path fill="#A6CE73" d="M99 309.93v-90.84c10.277 1.72 21.544.096 31.73-9.121 28.531-25.813 55.718-7.383 69.301 6.21 11.015 11.023 52.301 71.334 50.134 93.75H220.82c-19.299-15.566-35.044-43.554-81.84 0H99z"/><path fill="#3E5A88" d="M197.004 267.575C230.92 259.35 266.354 255 302.8 255c35.913 0 70.841 4.225 104.304 12.216 3.953-.506 7.434-3.18 8.796-7.116l1.3-4.1c26.6 6.7 52.5 15.6 77.5 26.8l-1.6 5.3c-1.234 3.497-.494 7.276 1.641 10.08a442.434 442.434 0 0 1 11.559 5.72l.7.357v5.734c0 6.632-5.364 12.009-12.003 12.009H111.003C104.374 322 99 316.626 99 309.991v-5.938l.3-.153a442.308 442.308 0 0 1 25.34-12.004c3.227-2.752 4.62-7.234 3.26-11.396l-1.8-4.3c9.8-4.2 49.6-18.7 59.1-21.5l2.1 5.4c1.43 4.377 5.342 7.266 9.704 7.475z"/><path fill="#214165" d="M225.6 264.3c0-13 34.1-23.5 76.2-23.5s76.2 10.5 76.2 23.5c0 3.131 2.626 6.168 4.942 8.238 1.351.893 2.553 1.812 3.594 2.754 3.21 2.202 4.864 5.558 4.864 9.108 0 15.3-40 27.6-89.5 27.6-49.6 0-89.8-12.4-89.8-27.6.2-4 2.3-7.2 5.6-9.7 0 0 .085-.056.238-.162a30.279 30.279 0 0 1 1.81-1.378c2.34-1.926 5.852-5.393 5.852-8.86z"/><path fill="#3E5A88" d="M354.8 250.5c12.5 3.8 20.2 9.1 20.2 13.7s-7.7 9.9-20.2 13.7c-14.1 4.3-33 6.7-53 6.7s-38.9-2.4-53-6.7c-12.5-3.8-20.2-9.1-20.2-13.7s7.7-9.9 20.2-13.7c14.1-4.3 32.9-6.7 53-6.7s38.9 2.4 53 6.7z"/><circle cx="32" cy="391" r="32" fill="#214165"/><circle cx="32" cy="391" r="22" fill="#7ABE77"/><circle cx="32" cy="387" r="11" fill="#FFF"/><circle cx="32" cy="387" r="4" fill="#000"/><circle cx="32" cy="404" r="3" fill="#000"/><circle cx="32" cy="280" r="32" fill="#214165"/><ellipse cx="32" cy="290" fill="#7ABE77" rx="19" ry="13"/><path stroke="#7ABE77" stroke-width="3" d="M22.5 268v16M41.5 268v16"/><circle cx="22.5" cy="265.5" r="6.5" fill="#FFF"/><circle cx="22.5" cy="265.5" r="2.5" fill="#000"/><circle cx="41.5" cy="265.5" r="6.5" fill="#FFF"/><circle cx="41.5" cy="265.5" r="2.5" fill="#000"/><g filter="url(#e)" transform="rotate(38 132.307 528.224)"><path fill="url(#f)" d="M102.325 3.312C89.614-.712 74.767.407 60.357 7.18 47.895 13.03 39.53 23.623 34.097 34.083c-3.88 7.473-7.173 16.139-12.034 21.443-.24.248-.48.497-.717.746C5.292 73.16-2.752 89.505 2.53 100.504c11.615 24.2 179.521-51.589 169.22-76.008C165.57 9.852 145.026 5.651 120.071 7.33c-7.136-.114-11.951-2.185-17.747-4.017z"/><g transform="rotate(-26 65.508 -103.693)"><ellipse cx="15" cy="23.5" fill="#7ABE77" rx="15" ry="9.5"/><path stroke="#7ABE77" stroke-width="3" d="M8 6v12.9M23 6v12.5"/><circle cx="8" cy="5" r="5" fill="#FFF"/><circle cx="8" cy="5" r="2" fill="#01192B"/><g transform="translate(18)"><circle cx="5" cy="5" r="5" fill="#FFF"/><circle cx="5" cy="5" r="2" fill="#01192B"/></g></g><path fill="#07F" d="M105.28 99.733c46.439-21.816 74.152-60.193 66.62-75.886-7.533-15.693-52.8-12.883-99.238 8.936C26.223 54.603-3.8 87.165 3.734 102.858c7.532 15.693 55.11 18.694 101.546-3.125z"/><path fill="#FFF" d="M103.247 93.106c21.965-10.32 36.88-24.703 33.318-32.128-3.562-7.422-24.258-5.072-46.223 5.247-21.964 10.32-36.88 24.703-33.318 32.125 3.563 7.422 24.258 5.076 46.223-5.244z"/></g><path fill="url(#g)" d="M135.916 1.257L222.513.083l105.399 382.125L.575 342.016z" opacity=".6" transform="rotate(14 -330.184 899.53)"/><path fill="#FFF" d="M32.5 296c6.9 0 12.5-2.727 12.5-6H20c0 3.364 5.6 6 12.5 6z"/><path fill="#C4C4C4" d="M125 397a6 6 0 1 1 0-12 6 6 0 0 1 0 12zm20 0a6 6 0 1 1 0-12 6 6 0 0 1 0 12zm20 0a6 6 0 1 1 0-12 6 6 0 0 1 0 12z"/><g transform="translate(260 265)"><circle cx="51.439" cy="51.439" r="42" fill="#000" transform="rotate(15 51.44 51.44)"/><path fill="#FFF" d="M59.577 46.44c1.1-1.1 1.1-3 0-4.1-.6-.6-1.3-.9-2.1-.9-.7 0-1.5.3-2.1.9l-.3.3-4.1 4.1-4 4-4.1 4.1-.3.3c-1.1 1.1-1.1 3 0 4.1.6.6 1.3.9 2.1.9.7 0 1.5-.3 2.1-.9l.3-.3 4.1-4.1 4-4 4.1-4.1.3-.3zm12.5-11.6l-5.1-5.1c-3-3-8.3-3-11.4 0l-5.1 5.1c-2.9 2.9-3.1 7.6-.5 10.8l4.2-4.2c-.4-.8-.2-1.8.4-2.5l5.1-5.1c.4-.4 1-.6 1.6-.6.6 0 1.1.2 1.6.6l5.1 5.1c.9.9.9 2.3 0 3.1l-5.1 5.1c-.6.6-1.6.8-2.4.4l-4.2 4.2c1.4 1.2 3.2 1.9 5.1 1.9 2.1 0 4.2-.8 5.7-2.4l5.1-5.1c3-3.1 3-8.2-.1-11.3zm-24.1 25.2c.4.8.2 1.8-.4 2.5l-5.1 5.1c-.8.8-2.3.8-3.1 0l-5.1-5.1c-.9-.9-.9-2.3 0-3.1l5.1-5.1c.4-.4 1-.6 1.6-.6.3 0 .6.1.9.2l4.2-4.2c-3.1-2.5-7.9-2.4-10.8.5l-5.1 5.1c-3.1 3.1-3.1 8.2 0 11.4l5.1 5.1c1.5 1.5 3.5 2.4 5.7 2.4s4.2-.8 5.7-2.4l5.1-5.1c2.9-2.9 3.1-7.6.5-10.8l-4.3 4.1z"/></g></g></svg>