<svg viewBox="0 0 16 16" fill="hsl(240deg 15% 17% / 50%)" xmlns="http://www.w3.org/2000/svg" class="Folder-m__icon--KgLwp FolderIcon-m__root--0a+2n qa-LeftColumn-FolderIcon" aria-hidden="true"><path d="M11.719 11.238a.95.95 0 111.343 1.344l-1.414 1.414a6 6 0 01-8.485-8.485l3.995-3.995a4.35 4.35 0 116.152 6.151l-3.996 3.996a2.7 2.7 0 11-3.818-3.819L9.032 4.31a.95.95 0 111.343 1.343L6.84 9.188a.8.8 0 101.131 1.131l3.995-3.995a2.45 2.45 0 10-3.465-3.465L4.506 6.854a4.1 4.1 0 005.798 5.799l1.415-1.415z" fill="hsl(240deg 15% 17% / 50%)"></path></svg>